<svg id="Capa_1" enable-background="new 0 0 511.913 511.913" height="512" viewBox="0 0 511.913 511.913" width="512" xmlns="http://www.w3.org/2000/svg"><g><g><path d="m433.499 463.296c-1.192 16.554-13.936 30-30.408 32.038-98.201 12.163-196.403 12.163-294.594 0-16.472-2.037-29.216-15.484-30.408-32.038-2.924-40.544-4.991-81.087-6.194-121.631-.428-13.946-.744-27.882-.947-41.827-.122-7.773-.214-15.535-.265-23.308l369.824-72.449c.01.285.01.571.01.856.163 8.649.275 17.307.357 25.956.673 77.471-1.782 154.932-7.375 232.403z" fill="#df73c1"/><path d="m125.682 497.331c-5.725-.621-11.46-1.284-17.185-1.997-16.472-2.037-29.216-15.484-30.408-32.038-2.924-40.544-4.992-81.087-6.194-121.631-.428-13.946-.744-27.882-.947-41.827-.122-7.773-.214-15.535-.265-23.308l37.691-7.385c.051 8.272.153 16.533.285 24.805.224 15.454.571 30.897 1.049 46.35 1.334 44.934 3.616 89.869 6.866 134.793.612 8.434 3.923 16.146 9.108 22.238z" fill="#dd4fb1"/><path d="m448.25 202.95-7.375 27.943-45.688 172.973-120.348-62.751-122.467 67.162-80.476-66.612c-.428-13.946-.744-27.882-.947-41.827l369.57-94.901z" fill="#dd4fb1"/><path d="m440.511 204.081c-.936-51.819-3.273-103.639-7.012-155.458-1.194-16.553-13.939-30.003-30.409-32.043-98.198-12.163-196.397-12.163-294.595 0-16.47 2.04-29.215 15.49-30.409 32.043-5.482 75.97-7.95 151.939-7.407 227.908" fill="#c6865c"/><path d="m131.428 13.974c-4.38 5.919-7.151 13.08-7.711 20.853-5.613 77.675-8.465 155.319-8.567 232.994l-44.466 8.71c-.55-75.963 1.925-151.937 7.406-227.911 1.192-16.554 13.936-30 30.408-32.038 7.639-.948 15.29-1.824 22.93-2.608z" fill="#b16e3d"/><path d="m48.385 274.376 415.145-106.602-53.067 200.915-120.345-62.76-122.47 67.168z" fill="#f9efda"/><g fill="#f6e4c1"><path d="m410.463 368.689-88.52-164.557-62.344 16.008 30.519 85.789z"/><path d="m48.385 274.376 66.264-36.24 52.999 134.961"/></g></g><path d="m468.849 162.492c-1.875-1.888-4.613-2.641-7.187-1.979l-14.651 3.762c-1.229-38.668-3.249-77.707-6.033-116.196-1.445-20.094-16.993-36.472-36.969-38.945-98.354-12.179-198.088-12.179-296.434 0-19.977 2.474-35.524 18.853-36.969 38.944-2.489 34.514-4.385 69.595-5.635 104.27-.149 4.139 3.085 7.616 7.225 7.765 4.123.149 7.616-3.086 7.765-7.225.323-8.963.692-17.954 1.101-26.955 33.875-2.29 67.877-3.916 101.936-4.869-.386 26.301-.662 52.576-.824 78.724-34.612.335-69.179.906-103.535 1.712.119-6.268.255-12.532.415-18.782.106-4.141-3.165-7.583-7.306-7.689-4.106-.086-7.583 3.165-7.689 7.306-.643 25.129-.944 50.47-.918 75.422l-18.355 10.038c-2.182 1.193-3.63 3.39-3.867 5.865-.237 2.476.768 4.907 2.684 6.493l19.811 16.399c.764 55.32 3.177 111.577 7.195 167.283 1.447 20.095 16.994 36.472 36.966 38.942 49.179 6.092 98.688 9.136 148.215 9.136 49.516 0 99.05-3.046 148.222-9.136 19.974-2.47 35.521-18.848 36.967-38.941 5.015-69.509 7.533-140.036 7.486-209.654l22.314-84.49c.68-2.572-.055-5.312-1.93-7.2zm-139.473 31.988c-.164-24.417-.425-48.916-.784-73.416 34.058.953 68.06 2.578 101.935 4.869.639 14.08 1.167 28.147 1.596 42.165zm96.641-145.322c1.479 20.455 2.743 41.067 3.787 61.694-33.712-2.256-67.546-3.863-101.436-4.802-.483-29.748-1.114-59.448-1.878-88.946 25.285 1.502 50.527 3.802 75.677 6.917 12.886 1.595 22.918 12.165 23.85 25.137zm-114.552-32.856c.771 29.641 1.407 59.488 1.895 89.385-38.358-.843-76.767-.843-115.125 0 .487-29.86 1.121-59.707 1.89-89.386 37.087-1.732 74.251-1.732 111.34.001zm-229.674 94.551c1.045-20.629 2.304-41.263 3.777-61.698.933-12.968 10.963-23.538 23.852-25.135 25.15-3.115 50.393-5.416 75.68-6.917-.762 29.536-1.391 59.235-1.874 88.947-33.89.94-67.724 2.546-101.435 4.803zm116.215 9.843c38.509-.855 77.07-.855 115.579 0 .38 25.909.655 51.819.817 77.629l-5.012 1.287c-37.266-.266-74.746-.245-112.214.044.164-26.226.442-52.58.83-78.96zm53.704 93.726-54.654 14.033c.012-4.601.027-9.2.046-13.799 18.208-.141 36.419-.224 54.608-.234zm-173.303 2.087c34.407-.81 69.027-1.383 103.693-1.72-.024 5.841-.044 11.681-.058 17.521l-55.979 14.374-4.433-11.29c-.787-2.005-2.398-3.574-4.423-4.309-2.026-.734-4.268-.563-6.157.47l-32.9 17.994c.021-10.971.106-21.992.257-33.04zm32.373 32.291 39.265 99.99-88.358-73.14zm294.833 108.897-28.293-14.752c-1.104-.638-2.385-1.003-3.752-1.003-4.143 0-7.5 3.363-7.5 7.505 0 2.795 1.554 5.358 4.032 6.65l36.9 19.241c1.085.565 2.275.85 3.468.85 1.031 0 2.063-.212 3.03-.64 2.086-.921 3.639-2.741 4.221-4.945l15.169-57.438c-.999 49.911-3.292 100.012-6.87 149.594-.934 12.97-10.963 23.54-23.849 25.133-97.134 12.032-195.628 12.031-292.752 0-12.884-1.593-22.914-12.163-23.848-25.134-3.688-51.128-6.011-102.719-6.948-153.616l84.244 69.734c1.383 1.145 3.081 1.723 4.783 1.723 1.226 0 2.448-.313 3.562-.917.013-.004.031-.001.042-.008l118.953-65.241 53.303 27.795c3.67 1.916 8.202.491 10.118-3.182 1.915-3.673.49-8.203-3.183-10.118l-56.859-29.65c-2.221-1.158-4.877-1.131-7.074.075l-114.998 63.072-39.926-101.671 321.424-82.532z"/></g></svg>