<svg width="468" height="142" viewBox="0 0 468 142" fill="none" xmlns="http://www.w3.org/2000/svg">
<path fill-rule="evenodd" clip-rule="evenodd" d="M98.9505 119.043C95.8489 122.57 92.1561 125.901 87.4373 129.232C71.5054 140.166 49.3258 145.945 26.6776 136.261C-12.5273 119.704 -2.68702 65.3483 19.024 38.0142C16.5249 28.3301 15.2754 13.804 18.3993 2.24562C19.024 -0.409688 22.3041 -1.34685 21.5231 3.0266C19.805 12.8669 21.2108 24.2691 22.7727 32.7036C39.6417 10.9925 63.0709 1.30846 87.7497 4.11996C148.666 10.9925 126.486 86.1222 62.1338 76.7505C45.8895 74.4076 31.5196 67.0664 23.3975 50.1974C17.7745 57.5385 -7.84145 120.797 32.7692 133.293C49.482 138.291 69.6311 135.948 85.0944 126.733C95.4664 120.653 101.107 113.299 106.113 104.184C116.209 83.3019 127.28 60.787 138.351 40.3571C141.943 33.7969 144.442 30.2045 149.44 30.5169C150.148 30.5713 150.894 30.7016 151.657 30.835C153.085 31.0846 154.576 31.3452 156.001 31.1416C149.128 38.1704 128.823 76.4381 116.015 102.523C120.232 97.212 124.449 92.3699 128.667 88.7775C136.164 82.0611 152.252 72.2208 157.563 74.0952C157.563 74.0952 140.85 103.46 138.819 114.393C137.57 120.797 139.132 122.516 141.162 122.672C148.213 123.132 158.574 102.682 162.058 95.5717C168.364 81.7874 180.857 70.3562 191.149 70.6589C203.02 70.8151 204.738 85.185 198.803 99.0863C196.46 104.553 191.618 111.894 185.683 117.517C186.932 119.86 189.275 121.422 193.024 121.422C201.954 121.422 209.388 105.966 213.545 97.3233C214.041 96.2913 214.491 95.3565 214.891 94.5567C215.083 94.172 215.389 93.9199 215.725 93.7935C217.555 89.7656 219.819 85.9288 222.226 82.6859C228.005 74.8761 235.659 70.3465 243.156 70.3465C250.966 70.3465 254.714 74.7199 253.933 81.1239C253.309 86.2784 246.905 92.8385 243.468 89.4022C245.187 87.3717 247.529 84.2478 248.31 81.4363C249.716 75.9695 248.154 73.7828 245.187 73.7828C239.564 73.7828 232.847 80.9677 228.474 87.2155C225.662 91.2766 219.883 102.054 219.883 111.113C219.883 117.361 222.382 123.14 229.099 123.14C239.612 123.14 246.479 114.072 251.942 104.252C252.5 101.844 253.312 99.3671 254.365 96.8996C260.457 82.5297 273.421 70.3465 284.042 70.6589C295.913 70.8151 297.631 85.185 291.696 99.0863C289.353 104.553 284.511 111.894 278.576 117.517C279.825 119.86 282.168 121.422 285.917 121.422C294.847 121.422 302.281 105.966 306.438 97.3233C306.935 96.2913 307.384 95.3564 307.784 94.5567C307.828 94.4686 307.878 94.3875 307.933 94.3133C312.828 76.9011 322.556 54.7233 331.52 39.7323C342.609 21.1452 359.478 23.3319 348.232 48.323C341.047 64.4111 331.52 81.2801 316.212 95.1814C315.924 96.1634 315.528 97.2949 315.097 98.5285C314.362 100.631 313.523 103.029 312.932 105.49C308.246 124.234 320.742 126.889 329.02 115.331C332.183 110.827 335.051 105.911 337.265 101.846C339.208 95.6404 342.869 88.7231 348.688 81.7487C358.059 70.6589 376.022 64.8797 384.925 74.5638C387.111 76.9067 385.862 79.562 383.207 79.0934C381.488 73.3142 375.709 72.0646 369.93 75.1885C362.901 79.0934 354.779 88.3089 349.156 97.5244C347.907 99.7111 343.689 107.365 342.752 113.3C341.19 124.234 349.781 122.984 357.122 114.237C362.589 107.677 366.962 100.023 371.023 92.3699C374.46 85.8098 376.646 82.0611 381.645 82.3735C382.342 82.4271 383.076 82.5729 383.828 82.7221C385.266 83.0076 386.769 83.3059 388.205 82.9983C384.925 86.2784 375.709 102.679 373.679 112.207C372.429 118.611 373.21 121.578 375.241 121.578C381.127 121.859 390.031 105.918 394.168 97.7876C396.667 88.4797 400.478 77.797 403.919 69.4093H395.797C394.079 69.4093 394.392 65.973 396.11 65.973H405.481C409.074 58.1633 412.979 50.5098 416.884 43.7934C427.661 24.8939 444.53 27.5492 432.972 52.5403C430.785 57.2261 428.598 61.5996 426.255 65.973H433.753C435.315 65.973 435.002 69.4093 433.44 69.4093H424.381C419.07 78.4686 412.822 86.7469 403.607 95.1814C402.201 99.2425 400.015 111.113 400.015 111.113C397.672 121.578 404.857 122.984 410.011 119.235C416.019 114.795 420.607 107.188 424.414 99.8834C426.528 93.402 430.236 86.8631 434.564 81.7487C442.53 72.377 454.401 66.4416 461.273 71.5961C467.209 76.1257 462.679 86.7469 452.683 94.4005C447.841 97.993 437.688 101.273 433.471 101.273C431.128 106.896 428.472 122.672 438.781 122.672C452.526 122.672 460.961 104.241 464.553 95.9624C465.803 93.1509 468.927 92.8385 467.365 96.1186C466.994 96.9206 466.619 97.7426 466.238 98.5786C460.68 110.768 453.757 125.952 437.532 125.952C429.722 125.952 422.693 120.797 422.537 110.957C422.523 110.136 422.552 109.296 422.619 108.443C419.485 114.099 417.048 117.196 413.291 120.954C404.857 129.076 389.393 126.42 391.736 109.239C391.825 108.568 391.931 107.87 392.054 107.151C387.071 115.909 380.493 125.098 373.991 125.639C368.837 125.952 361.495 121.891 366.181 105.49C363.682 109.551 359.465 115.799 354.935 120.173C343.719 130.901 334.878 124.273 335.562 110.897C330.888 118.499 324.299 125.639 315.119 125.639C303.798 125.639 302.943 116.677 304.469 107.813C300.108 115.663 293.686 124.077 285.604 124.077C280.919 124.077 277.638 122.359 275.608 120.016C271.234 123.296 266.549 125.483 262.019 125.327C254.438 125.128 250.998 119.259 251.047 111.423C245.643 120.14 239.04 125.952 227.537 125.952C214.201 125.952 210.443 117.742 211.58 107.805C207.219 115.657 200.795 124.077 192.711 124.077C188.025 124.077 184.745 122.359 182.715 120.016C178.341 123.296 173.656 125.483 169.126 125.327C160.742 125.106 157.422 117.952 158.286 108.87C153.34 117.611 146.907 125.952 139.132 125.952C133.665 125.952 126.167 122.203 130.853 107.677C132.103 103.616 135.071 98.3053 139.444 91.2766C143.193 85.185 140.381 80.9677 128.354 92.2138C123.044 97.0558 115.39 105.803 106.487 123.14C105.394 125.327 103.988 125.483 100.708 125.483C100.239 125.514 99.8081 125.533 99.4057 125.551C97.7963 125.621 96.6467 125.671 95.3971 126.42C96.5611 124.006 97.7462 121.545 98.9505 119.043ZM64.4767 73.0018C120.863 79.2496 134.764 16.6155 89.1554 10.0554C65.8824 6.61907 41.9846 21.6138 26.5214 45.1992C33.5501 63.1615 47.4515 71.1275 64.4767 73.0018ZM193.18 101.429C199.271 88.6213 200.052 77.5314 194.429 75.8133C187.713 73.939 178.029 83.9354 172.25 96.2748C166.158 109.083 164.752 120.016 170.375 121.735C173.343 122.516 177.248 120.954 180.997 117.83C179.279 115.331 178.498 112.519 178.498 110.176C178.654 106.584 180.06 103.46 183.964 103.46C186.62 103.46 188.65 105.646 188.65 108.146C188.65 108.663 188.543 109.074 188.417 109.554C188.391 109.654 188.365 109.757 188.338 109.864C190.056 107.365 191.774 104.397 193.18 101.429ZM286.073 101.429C292.165 88.6213 292.946 77.5314 287.323 75.8133C280.606 73.939 270.922 83.9354 265.143 96.2748C259.051 109.083 257.646 120.016 263.269 121.735C266.236 122.516 270.141 120.954 273.89 117.83C272.172 115.331 271.391 112.519 271.391 110.176C271.547 106.584 272.953 103.46 276.857 103.46C279.513 103.46 281.543 105.646 281.543 108.146C281.543 108.663 281.436 109.074 281.311 109.555C281.285 109.654 281.258 109.757 281.231 109.864C282.949 107.365 284.667 104.397 286.073 101.429ZM317.462 90.1832C328.552 78.9372 339.798 60.5062 345.889 45.9801C349.013 38.7952 350.575 26.9244 342.141 38.9514C334.487 49.7288 322.304 77.6876 317.462 90.1832ZM422.819 65.973C425.787 60.6624 428.442 55.1956 430.629 50.0412C433.596 43.481 435.783 29.5797 426.099 43.1686C422.956 47.6215 420.032 54.3804 416.868 61.696C416.258 63.1052 415.64 64.535 415.009 65.973H422.819ZM405.013 90.1832C410.948 84.0916 416.259 76.9067 420.788 69.4093H413.447C410.877 75.4065 408.499 81.4038 406.537 86.3489C405.996 87.7146 405.486 89.0001 405.013 90.1832ZM434.564 98.6177C437.376 98.6177 445.498 96.431 451.121 91.7452C463.929 80.9677 463.148 60.6624 443.936 83.9354C439.875 88.9337 435.97 95.8062 434.564 98.6177ZM156.932 47.8817H177.331L181.994 60.327H183.682L168.09 18.671H166.202L150.609 60.327H152.297L156.932 47.8817ZM176.759 46.3368H157.504L167.146 20.5307L176.759 46.3368ZM210.204 60.327H211.749V39.7279C211.863 38.1448 212.55 36.5045 213.809 34.807C216.002 31.8697 218.977 30.3725 222.735 30.3152C225.653 30.2771 227.789 31.0782 229.143 32.7185C230.517 34.3397 231.203 36.8478 231.203 40.2429V60.327H232.748V40.1284C232.729 36.3519 231.9 33.5195 230.259 31.6313C228.638 29.743 226.159 28.7989 222.821 28.7989C220.265 28.7989 217.957 29.4665 215.897 30.8016C213.837 32.1177 212.349 33.8915 211.434 36.123C210.919 33.5291 209.832 31.6599 208.172 30.5155C206.532 29.3711 204.415 28.7989 201.821 28.7989C199.456 28.7989 197.301 29.4856 195.355 30.8588C193.41 32.2321 191.912 34.1776 190.863 36.6952V29.3711H189.29V60.327H190.863V40.7579C191.283 38.5835 192.132 36.5999 193.41 34.807C195.565 31.8125 198.34 30.3152 201.735 30.3152C204.673 30.3152 206.809 31.0782 208.144 32.604C209.498 34.1108 210.185 36.4187 210.204 39.5276V60.327ZM242.504 60.327H244.049V29.3711H242.504V60.327ZM242.161 18.5852C241.856 18.8904 241.703 19.2623 241.703 19.701C241.703 20.1397 241.856 20.5116 242.161 20.8168C242.466 21.1219 242.838 21.2745 243.277 21.2745C243.715 21.2745 244.087 21.1219 244.393 20.8168C244.717 20.5116 244.879 20.1397 244.879 19.701C244.879 19.2623 244.717 18.8904 244.393 18.5852C244.087 18.2609 243.715 18.0988 243.277 18.0988C242.838 18.0988 242.466 18.2609 242.161 18.5852ZM255.865 32.976C253.786 35.7416 252.747 39.5944 252.747 44.5344V44.9349C252.747 49.8939 253.786 53.7944 255.865 56.6363C257.944 59.4783 260.776 60.8992 264.362 60.8992C266.67 60.8992 268.73 60.4319 270.542 59.4973C272.373 58.5437 273.823 57.1895 274.891 55.4347V60.184C274.833 63.7125 273.918 66.44 272.144 68.3664C270.37 70.3119 267.891 71.2846 264.706 71.2846C262.779 71.2846 261.101 70.8745 259.67 70.0544C258.24 69.2533 256.924 68.0898 255.722 66.564L254.635 67.5939C255.856 69.2724 257.324 70.5598 259.041 71.4563C260.776 72.3527 262.684 72.8009 264.763 72.8009C268.368 72.8009 271.219 71.647 273.317 69.3391C275.415 67.0503 276.464 63.8651 276.464 59.7834V29.3711H274.891V35.0359C273.804 32.995 272.363 31.4501 270.571 30.4011C268.778 29.333 266.727 28.7989 264.419 28.7989C260.796 28.7989 257.944 30.1913 255.865 32.976ZM256.952 55.5778C255.198 53.041 254.32 49.5602 254.32 45.1352C254.32 40.2715 255.198 36.5903 256.952 34.0917C258.726 31.5932 261.206 30.3439 264.391 30.3439C269.712 30.3439 273.212 33.0236 274.891 38.3832V52.4307C274.128 54.6241 272.831 56.3312 271 57.5519C269.169 58.7535 266.947 59.3543 264.334 59.3543C261.167 59.3543 258.707 58.0954 256.952 55.5778ZM285.705 36.2947C284.58 38.6407 284.017 41.2919 284.017 44.2483V45.6215C284.036 48.5397 284.618 51.1719 285.762 53.5179C286.907 55.8448 288.509 57.6568 290.569 58.9537C292.648 60.2507 294.994 60.8992 297.607 60.8992C300.22 60.8992 302.556 60.2412 304.616 58.9251C306.695 57.6091 308.298 55.778 309.423 53.432C310.548 51.086 311.111 48.4253 311.111 45.4499V44.0766C311.092 41.1393 310.5 38.4977 309.337 36.1517C308.193 33.8056 306.59 31.9937 304.531 30.7158C302.471 29.4379 300.144 28.7989 297.55 28.7989C294.937 28.7989 292.591 29.4569 290.512 30.773C288.452 32.0891 286.85 33.9296 285.705 36.2947ZM287.079 52.5451C286.068 50.3899 285.562 48.0248 285.562 45.4499V44.5344C285.562 40.4527 286.678 37.0672 288.91 34.3778C291.141 31.6885 294.021 30.3439 297.55 30.3439C299.858 30.3439 301.918 30.9542 303.729 32.1749C305.561 33.3765 306.991 35.0549 308.021 37.2102C309.051 39.3655 309.566 41.7115 309.566 44.2483V45.1352C309.566 49.3122 308.45 52.7263 306.219 55.3775C304.006 58.0287 301.135 59.3543 297.607 59.3543C295.261 59.3543 293.172 58.7535 291.341 57.5519C289.529 56.3502 288.108 54.6813 287.079 52.5451Z" fill="#44231A"/>
</svg>
