<svg width="674" height="477" viewBox="0 0 674 477" fill="none" xmlns="http://www.w3.org/2000/svg">
<path d="M183.829 143.935C183.646 143.432 183.473 142.927 183.311 142.419" stroke="#BFE7FA" stroke-width="0.7056" stroke-miterlimit="10"/>
<path d="M182.458 139.327C177.498 118.147 189.524 93.7824 209.871 85.6362C232.033 76.7626 257.022 86.2109 278.31 97.0181C299.598 107.827 321.923 120.489 345.66 117.975C366.853 115.73 384.836 101.714 405.163 95.3113C421.529 90.1572 440.04 90.2558 455.208 98.2794C464.119 102.994 471.562 110.245 477.19 118.615C494.919 144.978 492.903 183.006 472.487 207.343C455.855 227.171 430.422 236.729 406.986 247.687C384.522 258.192 361.376 272.493 351.978 295.187" stroke="#BFE7FA" stroke-width="0.7056" stroke-miterlimit="10" stroke-dasharray="1.44 1.44"/>
<path d="M351.385 296.677C351.195 297.174 351.012 297.675 350.836 298.18" stroke="#BFE7FA" stroke-width="0.7056" stroke-miterlimit="10"/>
<path d="M200.412 145.989C201.007 145.041 201.827 144.245 202.36 143.261C203.136 141.826 203.225 140.063 202.716 138.512C202.304 137.26 203.006 137.445 201.966 136.616C200.395 135.366 198.321 135.913 196.662 136.296C189.592 137.931 194.898 146.267 195.099 146.521L200.412 145.989Z" fill="#EFB098"/>
<path d="M192.304 141.704L194.203 145.23C194.452 145.692 195.036 145.852 195.485 145.58L207.689 138.179L205.004 133.985L192.685 140.456C192.233 140.693 192.062 141.254 192.304 141.704Z" fill="#5194CF"/>
<path d="M193.991 113.132L194.638 114.362L201.895 110.567L201.25 109.338C200.33 107.591 197.961 107.024 195.957 108.072C193.953 109.12 193.073 111.386 193.991 113.132Z" fill="#F2694A"/>
<path d="M186.391 118.42L203.697 131.281L211.322 127.295L210.553 105.788L186.391 118.42Z" fill="#F2694A"/>
<path d="M187.456 119.321L203.697 131.281L206.736 129.692L195.444 115.145L187.456 119.321Z" fill="#DF5C43"/>
<path d="M209.019 139.955C209.662 141.177 211.319 141.573 212.72 140.84L214.076 140.132C215.478 139.398 216.093 137.814 215.45 136.592C214.807 135.37 213.151 134.974 211.749 135.707L210.394 136.415C208.992 137.148 208.377 138.732 209.019 139.955V139.955Z" fill="#65BAE8"/>
<path d="M211.75 135.708L210.396 136.416C208.991 137.151 208.379 138.733 209.022 139.954C209.665 141.177 211.318 141.575 212.723 140.84L214.076 140.133C214.18 140.079 214.279 140.019 214.371 139.954C213.05 140.482 211.585 140.058 210.989 138.926C210.395 137.794 210.878 136.352 212.065 135.568C211.959 135.607 211.852 135.655 211.75 135.708V135.708Z" fill="#5194CF"/>
<path d="M185.45 118.714C185.827 119.431 186.801 119.663 187.623 119.234L210.523 107.262C211.346 106.831 211.707 105.9 211.331 105.183C210.953 104.465 209.98 104.233 209.157 104.663L186.257 116.634C185.434 117.065 185.073 117.996 185.45 118.714V118.714Z" fill="#65BAE8"/>
<path d="M211.471 105.716L192.4 115.688C191.576 116.117 190.603 115.885 190.226 115.167C190.137 114.998 190.096 114.817 190.085 114.633L186.257 116.634C185.434 117.065 185.073 117.996 185.45 118.714C185.827 119.431 186.801 119.663 187.623 119.233L210.523 107.26C211.152 106.932 211.504 106.312 211.471 105.716V105.716Z" fill="#5194CF"/>
<path d="M203.611 135.462L204.389 136.941C205.536 139.122 208.495 139.83 210.997 138.522L213.144 137.4C215.646 136.092 216.745 133.262 215.598 131.081L214.819 129.602C213.672 127.421 210.714 126.713 208.212 128.021L206.065 129.143C203.563 130.452 202.464 133.281 203.611 135.462Z" fill="#65BAE8"/>
<path d="M206.183 129.083L202.968 130.763C202.178 131.176 201.827 132.071 202.191 132.763L205.808 139.641C206.171 140.33 207.11 140.555 207.9 140.141L211.115 138.46C210.324 138.874 209.385 138.649 209.023 137.959L205.406 131.083C205.042 130.39 205.392 129.496 206.183 129.083V129.083Z" fill="#5194CF"/>
<path d="M195.192 138.013C196.442 136.594 198.069 135.75 199.759 135.644C200.341 135.608 200.928 135.656 201.513 135.713C201.795 135.742 202.087 135.775 202.342 135.952C202.739 136.227 202.973 136.8 203.088 137.366C203.211 137.976 203.214 138.66 202.954 139.163C202.523 140.001 201.577 140.014 200.799 139.775C200.719 139.75 200.635 139.723 200.559 139.755C200.443 139.802 200.385 139.96 200.334 140.102C200.123 140.693 199.834 141.266 199.392 141.56C198.949 141.853 198.325 141.78 197.998 141.247C197.865 141.03 197.721 140.712 197.522 140.773C197.456 140.793 197.405 140.855 197.354 140.911C196.993 141.31 196.519 141.533 196.035 141.53C195.916 141.53 195.788 141.513 195.687 141.422C195.611 141.354 195.558 141.251 195.51 141.148C195.339 140.778 195.218 140.371 195.155 139.953L195.192 138.013V138.013Z" fill="#EFB098"/>
<path d="M200.19 146.136C200.657 145.581 201.384 144.626 201.917 144.133C203.361 142.802 204.16 140.744 203.803 138.812C203.774 138.653 203.73 138.484 203.605 138.38C203.448 138.25 203.204 138.273 203.031 138.382C202.857 138.491 202.739 138.667 202.631 138.842C202.29 139.395 201.978 140.817 201.317 141.025C200.332 141.337 199.335 141.763 198.564 142.47C197.883 143.095 197.022 144.401 197.619 145.332L200.19 146.136V146.136Z" fill="#EFB098"/>
<path d="M203.129 90.1614L202.176 101.11" stroke="#F15F3F" stroke-width="0.5567" stroke-miterlimit="10" stroke-linecap="round" stroke-linejoin="round"/>
<path d="M191.006 93.9072L195.679 103.853" stroke="#F15F3F" stroke-width="0.5567" stroke-miterlimit="10" stroke-linecap="round" stroke-linejoin="round"/>
<path d="M180.258 102.074L189.408 108.152" stroke="#F15F3F" stroke-width="0.5567" stroke-miterlimit="10" stroke-linecap="round" stroke-linejoin="round"/>
<path d="M237.065 158.756C232.458 158.345 227.91 159.889 223.64 161.672C213.19 166.035 211.573 168.935 203.511 173.284C203.289 166.985 200.904 145.288 200.873 145.228C200.207 143.961 195.185 145.832 195.185 145.832C195.129 146.151 194.21 147.902 194.155 148.22C186.766 163.977 179.351 189.494 185.343 196.627C191.335 203.762 223.994 190.91 240.84 183.572L247.598 166.457C246.345 162.001 241.673 159.168 237.065 158.756V158.756Z" fill="#EFB098"/>
<path d="M212.065 166.693C210.911 168.138 210.368 171.53 210.728 173.365C212.326 181.524 216.085 188.746 222.788 193.893C222.788 193.893 236.302 186.297 238.171 187.171C240.039 188.046 255.656 167.511 246.082 161.028C232.28 151.682 212.065 166.693 212.065 166.693V166.693Z" fill="#3A93CF"/>
<path d="M238.261 188.017C235.265 187.879 231.957 189.528 229.24 190.594C227.015 191.468 224.631 192.63 222.6 193.572C222.167 193.773 222.544 194.414 222.976 194.215C224.924 193.31 227.376 192.375 229.487 191.488C232.105 190.387 235.355 188.643 238.261 188.632C238.658 188.631 238.655 188.036 238.261 188.017V188.017Z" fill="#4B6FB4"/>
<path d="M196.223 363.735C196.223 363.735 196.415 368.921 196.186 369.417C195.384 371.159 190.255 374.317 189.64 374.756C189.024 375.196 180.346 379.107 179.926 379.858C179.506 380.609 178.427 382.15 182.962 381.436C187.496 380.723 202.73 377.857 204.21 377.624C205.689 377.391 204.536 372.797 204.06 371.044C203.745 369.884 203.498 367.36 203.997 364.933L196.223 363.735V363.735Z" fill="#FBC5AD"/>
<path d="M205.069 378.878C205.236 378.852 205.247 378.265 205.024 377.457C205.012 376.737 204.902 376.055 204.84 375.733C204.538 374.145 204.723 373.092 204.453 371.528C204.247 370.326 203.302 371.216 202.686 371.524C202.154 371.79 200.116 372.271 199.517 372.36C198.769 372.472 197.999 372.443 197.262 372.272C197.047 372.222 196.826 372.156 196.667 372.003C196.367 371.713 196.394 371.228 196.23 370.843C196.171 370.704 196.065 370.563 195.915 370.55C195.767 370.538 195.643 370.654 195.54 370.761C195.014 371.308 194.513 371.926 193.941 372.424C193.483 372.824 192.944 373.168 192.457 373.539C191.49 374.274 190.52 375.047 189.443 375.614C188.773 375.966 179.276 380.84 179.276 380.84C179.276 380.84 179.316 381.632 179.512 382.34C179.661 382.884 180.25 383.252 181.717 383.021C186.252 382.308 203.589 379.111 205.069 378.878V378.878Z" fill="#BEE1F3"/>
<path d="M205.024 377.457C205.366 377.402 205.229 375.462 205.108 374.827C204.805 373.239 204.51 371.737 204.241 370.171C204.034 368.97 203.089 369.861 202.473 370.169C201.941 370.435 201.503 370.784 200.904 370.874C200.156 370.986 197.786 371.086 197.049 370.916C196.834 370.867 196.613 370.801 196.454 370.647C196.154 370.356 196.181 369.872 196.017 369.486C195.958 369.348 195.852 369.207 195.702 369.194C195.553 369.183 195.43 369.298 195.327 369.405C194.801 369.952 194.3 370.57 193.728 371.069C193.269 371.468 192.731 371.813 192.244 372.183C191.277 372.917 190.307 373.691 189.23 374.258C188.56 374.61 181.35 377.382 179.98 378.907C179.405 379.548 178.125 382.198 181.504 381.666C186.039 380.952 203.545 377.69 205.024 377.457V377.457Z" fill="#5194CF"/>
<path d="M189.037 374.159C189.145 374.676 189.734 374.953 190.075 375.326C190.445 375.732 190.655 376.372 191.198 376.558C191.347 376.609 191.54 376.548 191.594 376.385C191.906 375.436 190.112 373.556 189.142 373.963C189.071 373.993 189.021 374.082 189.037 374.159V374.159Z" fill="#BEE1F3"/>
<path d="M191.579 372.976C192.19 373.152 192.677 373.793 193.021 374.295C193.3 374.703 193.434 375.136 193.89 375.364C194.047 375.443 194.26 375.333 194.318 375.177C194.759 373.979 192.786 372.189 191.657 372.27C191.3 372.296 191.235 372.876 191.579 372.976Z" fill="#BEE1F3"/>
<path d="M193.102 371.555C193.776 371.921 194.377 372.426 194.785 373.083C195.071 373.543 195.129 374.128 195.566 374.469C195.677 374.556 195.863 374.528 195.942 374.41C196.368 373.772 195.887 372.97 195.476 372.433C194.931 371.721 194.153 371.292 193.316 371.007C192.948 370.881 192.777 371.378 193.102 371.555V371.555Z" fill="#BEE1F3"/>
<path d="M195.595 369.229C195.912 369.473 195.9 370.225 196.192 370.562C196.617 371.054 197.325 371.199 197.933 371.299C198.685 371.423 201.155 371.331 201.9 371.131C202.798 370.891 203.297 370.108 204.248 369.977C204.763 369.905 204.635 369.084 204.122 369.178C203.59 369.274 203.254 369.43 202.78 369.711C201.697 370.349 199.537 370.751 198.257 370.602C197.891 370.558 197.389 370.513 197.063 370.345C196.232 369.915 196.685 369.924 196.361 369.477C196.13 369.158 196.155 369.073 195.752 368.941C195.576 368.883 195.441 369.112 195.595 369.229V369.229Z" fill="#BEE1F3"/>
<path d="M268.39 253.271C262.611 264.134 253.309 265.894 244.724 267.663C237.284 275.494 224.303 298.74 219.047 306.5C219.603 310.652 221.026 317.589 219.603 324.276C217.465 334.322 207.018 359.28 204.576 367.683C204.576 367.683 202.766 368.277 200.249 368.096C198.404 367.964 196.174 367.251 196.174 367.251C190.262 346.124 190.306 316.502 192.44 298.707C194.201 284.042 201.983 257.575 208.967 244.897C217.237 229.885 222.128 217.467 240.177 212.671L268.39 253.271V253.271Z" fill="#DF5C43"/>
<path d="M284.595 356.482C284.595 356.482 287.896 360.486 288.016 361.02C288.434 362.891 286.275 368.516 286.053 369.24C285.83 369.963 281.308 378.346 281.43 379.197C281.552 380.05 281.63 381.93 284.8 378.606C287.969 375.284 298.334 363.747 299.369 362.663C300.403 361.578 296.7 358.629 295.258 357.526C294.305 356.795 292.577 354.941 291.501 352.708L284.595 356.482V356.482Z" fill="#FBC5AD"/>
<path d="M300.813 363.137C300.929 363.014 300.582 362.541 299.915 362.034C299.467 361.47 298.967 360.995 298.723 360.776C297.519 359.699 297.028 358.751 295.864 357.67C294.97 356.841 294.761 358.123 294.458 358.743C294.196 359.277 292.869 360.898 292.447 361.333C291.921 361.876 291.291 362.321 290.602 362.634C290.401 362.725 290.185 362.806 289.966 362.781C289.55 362.733 289.278 362.332 288.915 362.124C288.783 362.05 288.614 362.002 288.487 362.085C288.361 362.165 288.334 362.332 288.317 362.48C288.231 363.234 288.208 364.029 288.056 364.772C287.934 365.369 287.715 365.97 287.552 366.56C287.23 367.731 286.928 368.935 286.417 370.041C286.098 370.728 281.51 380.373 281.51 380.373C281.51 380.373 282.022 380.976 282.607 381.421C283.056 381.762 283.748 381.697 284.773 380.622C287.942 377.299 299.778 364.221 300.813 363.137V363.137Z" fill="#BEE1F3"/>
<path d="M299.915 362.034C300.153 361.785 298.867 360.326 298.385 359.895C297.182 358.817 296.036 357.802 294.872 356.723C293.978 355.894 293.769 357.176 293.466 357.795C293.204 358.33 293.069 358.874 292.647 359.309C292.121 359.853 290.299 361.373 289.61 361.686C289.409 361.777 289.193 361.859 288.975 361.834C288.559 361.785 288.287 361.384 287.923 361.177C287.791 361.102 287.622 361.055 287.495 361.137C287.37 361.217 287.342 361.384 287.325 361.532C287.239 362.286 287.216 363.082 287.064 363.825C286.942 364.421 286.723 365.022 286.56 365.612C286.238 366.783 285.937 367.988 285.425 369.094C285.106 369.78 281.059 376.364 280.896 378.409C280.828 379.267 281.419 382.151 283.781 379.674C286.951 376.352 298.88 363.119 299.915 362.034V362.034Z" fill="#5194CF"/>
<path d="M285.212 369.132C285.611 369.477 286.247 369.338 286.745 369.428C287.285 369.525 287.84 369.907 288.384 369.724C288.534 369.674 288.65 369.507 288.594 369.346C288.266 368.402 285.7 368 285.177 368.912C285.138 368.978 285.153 369.081 285.212 369.132V369.132Z" fill="#BEE1F3"/>
<path d="M286.514 366.646C287.106 366.416 287.882 366.629 288.46 366.819C288.929 366.973 289.297 367.236 289.798 367.14C289.971 367.107 290.074 366.889 290.025 366.73C289.648 365.51 286.995 365.288 286.147 366.039C285.88 366.275 286.179 366.776 286.514 366.646V366.646Z" fill="#BEE1F3"/>
<path d="M286.861 364.592C287.619 364.473 288.403 364.509 289.125 364.783C289.631 364.974 290.032 365.405 290.587 365.41C290.728 365.412 290.859 365.276 290.85 365.134C290.802 364.369 289.932 364.024 289.281 363.847C288.415 363.612 287.537 363.744 286.699 364.026C286.33 364.15 286.496 364.649 286.861 364.592Z" fill="#BEE1F3"/>
<path d="M287.431 361.23C287.831 361.23 288.278 361.835 288.715 361.926C289.351 362.058 290.001 361.742 290.545 361.453C291.217 361.094 293.124 359.52 293.595 358.908C294.162 358.171 294.083 357.246 294.76 356.564C295.125 356.193 294.526 355.62 294.175 356.005C293.811 356.405 293.638 356.733 293.432 357.244C292.959 358.411 291.487 360.042 290.379 360.701C290.062 360.89 289.635 361.16 289.275 361.223C288.354 361.387 288.718 361.118 288.191 360.96C287.812 360.848 287.781 360.764 287.381 360.905C287.207 360.966 287.238 361.23 287.431 361.23V361.23Z" fill="#BEE1F3"/>
<path d="M279.034 238.947C281.033 251.091 274.71 258.143 268.963 264.767C267.802 275.51 265.019 293.14 261.825 303.736C265.221 305.483 269.747 306.491 275.988 314.643C282.227 322.796 290.417 346.913 293.575 355.074C293.575 355.074 293.027 356.415 290.917 357.8C289.372 358.815 286.691 359.305 286.691 359.305C269.176 346.113 245.06 329.152 235.959 313.716C228.461 300.994 226.757 283.932 224.614 269.614C222.078 252.66 220.557 238.62 231.987 223.838L279.034 238.947V238.947Z" fill="#F2694A"/>
<path d="M227.101 121.649C224.862 122.074 222.478 122.574 220.867 124.189C219.718 125.342 219.119 126.923 218.762 128.483C218.369 130.2 217.84 131.87 217.343 133.58C216.301 137.161 215.48 140.807 214.887 144.491C214.675 145.802 214.615 147.415 215.713 148.159C216.394 148.622 217.289 148.561 218.108 148.483C220.374 148.266 222.639 148.05 224.905 147.832C224.754 152.05 224.602 156.266 224.451 160.484C231.684 159.519 238.899 158.401 246.084 157.13C245.836 151.603 242.197 146.883 240.34 141.673C240.091 140.975 239.871 140.25 239.899 139.509C239.935 138.557 240.373 137.675 240.642 136.762C241.793 132.854 239.649 128.545 236.402 126.088C233.154 123.631 231.131 122.221 227.101 121.649V121.649Z" fill="#FBC5AD"/>
<path d="M246.834 138.77C246.427 135.647 245.891 132.54 245.226 129.461C244.725 127.142 244.109 124.753 242.611 122.915C240.969 120.9 238.441 119.789 235.895 119.27C233.351 118.75 230.733 118.753 228.143 118.562C225.441 118.364 222.637 117.964 220.092 118.891C219.208 119.212 218.362 119.706 217.781 120.445C217.2 121.185 216.916 122.197 217.196 123.095C217.465 123.958 218.219 124.615 219.072 124.913C219.924 125.211 220.861 125.184 221.744 125C222.941 124.751 224.373 124.287 225.239 125.15C225.596 125.507 225.749 126.014 225.885 126.499C226.462 128.559 226.958 130.641 227.369 132.741C227.633 134.081 227.827 135.596 227.029 136.704C226.29 137.73 224.734 138.854 223.479 138.714C222.225 138.574 221.054 138.037 219.865 137.612C218.497 137.122 217.095 137.021 215.655 137.089C215.189 137.112 214.677 137.238 214.422 137.629C214.324 137.781 214.274 137.958 214.228 138.133C214.11 138.572 214.005 139.014 213.913 139.459C213.862 139.705 213.819 139.979 213.948 140.195C214.108 140.463 214.486 140.529 214.782 140.427C215.076 140.325 215.308 140.097 215.53 139.877C215.804 140.242 216.175 140.557 216.621 140.66C217.066 140.763 217.586 140.611 217.829 140.224C218.351 140.647 218.979 140.937 219.64 141.058C220.086 141.14 220.55 141.147 220.978 141.297C221.949 141.637 222.3 142.144 221.854 142.992C221.591 143.492 221.098 143.844 220.564 144.025C218.537 144.712 216.41 143.108 214.275 143.243C214.099 143.254 213.915 143.28 213.776 143.389C213.596 143.529 213.535 143.769 213.485 143.992C213.161 145.424 212.838 146.857 212.514 148.29C212.315 149.174 211.688 150.689 212.576 151.381C213.072 151.769 213.864 151.701 214.289 151.235C214.702 151.7 215.393 151.894 215.988 151.715C216.254 151.634 216.501 151.486 216.775 151.443C217.609 151.315 218.312 152.173 219.155 152.185C219.697 152.193 220.175 151.85 220.697 151.701C221.216 151.553 221.767 151.6 222.307 151.6C224.885 151.596 227.408 150.374 229.077 148.418C230.999 146.165 231.459 143.129 231.496 140.259C231.507 139.273 231.505 138.256 231.883 137.345C232.261 136.435 233.129 135.648 234.113 135.697C235.081 135.745 235.858 136.584 236.176 137.5C236.495 138.418 236.461 139.413 236.485 140.383C236.51 141.354 236.612 142.37 237.154 143.175C238.007 144.444 239.761 144.838 241.255 144.519C242.748 144.201 244.047 143.31 245.302 142.44C245.896 142.028 246.521 141.578 246.79 140.907C247.02 140.331 246.951 139.685 246.873 139.069C246.86 138.97 246.847 138.87 246.834 138.77V138.77Z" fill="#915448"/>
<path d="M215.18 198.976C215.309 203.132 215.411 207.448 213.751 211.259C212.667 213.746 210.893 215.865 209.596 218.248C205.264 226.197 202.285 240.54 207.954 248.497C223.144 256.398 258.365 262.777 274.72 252.617C277.163 251.1 279.063 248.464 279.436 245.611C279.667 243.84 278.887 236.866 278.507 235.12C275.281 220.287 274.25 215.714 270.92 203.661C260.873 167.307 245.2 152.097 245.2 152.097C245.2 152.097 241.529 153.84 232.534 154.752C227.585 157.055 227.004 160.339 223.268 164.321C218.831 169.05 216.593 172.442 214.157 178.454C211.721 184.466 212.955 192.883 215.18 198.976V198.976Z" fill="#5194CF"/>
<path d="M218.19 213.558C224.986 211.632 231.702 211.248 238.719 211.181C238.982 211.179 238.967 210.812 238.719 210.782C231.868 209.96 224.628 211.127 218.044 213.029C217.705 213.126 217.849 213.656 218.19 213.558Z" fill="#4B6FB4"/>
<path d="M223.641 208.362C226.95 208.53 230.343 208.485 233.595 207.794C233.876 207.733 233.819 207.26 233.526 207.285C230.212 207.575 226.973 207.862 223.641 207.694C223.211 207.672 223.213 208.341 223.641 208.362V208.362Z" fill="#4B6FB4"/>
<path d="M243.479 176.865C232.173 191.359 209.596 218.248 200.929 214.839C192.262 211.431 186.617 185.464 185.601 168.089C184.231 164.068 183.026 159.991 181.988 155.872C181.512 153.982 182.387 151.443 183.368 149.787C184.325 148.172 186.036 146.869 187.911 146.942C188.031 146.947 188.158 146.96 188.252 147.033C188.474 147.205 188.376 147.55 188.303 147.821C187.885 149.381 189.04 150.905 189.256 152.507C189.358 153.262 189.247 154.031 189.288 154.792C189.524 159.132 194.068 161.738 192.917 166.427C197.114 175.059 202.571 180.22 205.77 185.648C210.782 177.976 210.821 174.655 217.926 165.831C220.828 162.225 224.089 158.698 228.334 156.858C232.579 155.019 238.037 155.279 241.262 158.597L243.479 176.865V176.865Z" fill="#FBC5AD"/>
<path d="M210.145 175.771C209.82 177.592 210.96 180.833 212.15 182.273C217.444 188.681 224.189 193.234 232.534 194.556C232.534 194.556 240.79 181.426 242.85 181.303C244.909 181.179 248.846 155.675 237.342 154.549C220.757 152.925 210.145 175.771 210.145 175.771V175.771Z" fill="#5194CF"/>
<path d="M243.324 182.008C240.626 183.318 238.505 186.349 236.626 188.582C235.088 190.411 233.546 192.575 232.214 194.368C231.928 194.753 232.572 195.124 232.855 194.744C233.819 193.447 235.843 191.037 237.146 189.406C238.959 187.136 241.028 183.968 243.634 182.54C243.984 182.347 243.676 181.838 243.324 182.008V182.008Z" fill="#4B6FB4"/>
<path d="M190.9 163.268C189.852 164.173 188.707 162.859 188.297 161.932C188.297 161.932 182.866 149.659 182.864 149.655C182.314 148.413 182.984 147.244 183.853 146.36C184.322 145.884 184.835 145.455 185.343 145.023C185.784 144.647 186.217 144.098 186.863 144.202C187.673 144.331 188.281 145.077 188.6 145.783C188.6 145.784 193.636 156.965 193.636 156.965C193.865 157.483 193.984 158.082 193.885 158.647C193.802 159.12 191.31 162.914 190.9 163.268V163.268Z" fill="#5194CF"/>
<path d="M191.075 161.878C190.288 162.559 189.428 161.572 189.121 160.875C189.12 160.875 183.839 148.957 183.837 148.953C183.425 148.021 183.928 147.144 184.581 146.48C184.932 146.122 185.318 145.799 185.7 145.476C186.031 145.193 186.357 144.781 186.841 144.859C187.45 144.956 187.906 145.516 188.145 146.046C188.145 146.047 193.13 157.145 193.13 157.145C193.302 157.535 193.392 157.984 193.317 158.408C193.255 158.764 191.383 161.613 191.075 161.878V161.878Z" fill="#65BAE8"/>
<path d="M185.379 160.06C185.454 158.22 185.879 156.395 186.622 154.711C186.836 154.224 187.354 153.662 187.794 153.962C188.067 154.148 188.069 154.544 188.042 154.873C187.987 155.546 187.931 156.218 187.876 156.89C187.854 157.157 187.834 157.433 187.923 157.684C188.023 157.965 188.247 158.181 188.455 158.395C189.832 159.817 190.766 161.663 191.095 163.617C191.211 164.309 191.249 165.04 190.992 165.692C190.736 166.345 190.122 166.897 189.421 166.894L185.379 160.06V160.06Z" fill="#FBC5AD"/>
<path d="M231.827 137.285C231.568 135.902 232.536 134.402 233.902 134.07C235.269 133.737 236.817 134.627 237.22 135.975C237.54 137.045 237.19 138.206 236.67 139.196C236.02 140.437 234.932 141.624 233.535 141.704L231.827 137.285Z" fill="#FBC5AD"/>
<path d="M219.608 130.229C217.746 131.539 215.985 132.995 214.348 134.579C214 134.915 213.652 135.265 213.427 135.693C213.284 135.963 213.192 136.276 213.254 136.576C213.371 137.135 213.964 137.454 214.517 137.599C216.356 138.079 218.284 137.469 220.086 136.867L219.608 130.229V130.229Z" fill="#FBC5AD"/>
<path d="M205.579 185.625C206.92 187.722 207.983 189.975 208.553 192.409C209.139 194.913 208.978 197.264 209.024 199.787C209.028 200.022 209.355 200.061 209.426 199.841C210.971 195.061 208.906 189.141 205.824 185.435C205.711 185.298 205.484 185.476 205.579 185.625V185.625Z" fill="#F4A586"/>
<path d="M232.54 140.851C233.367 142.264 235.886 141.681 235.912 140.002C235.914 139.863 235.743 139.749 235.62 139.835C235.21 140.121 234.946 140.556 234.499 140.803C233.95 141.105 233.274 141.107 232.819 140.635C232.679 140.489 232.438 140.676 232.54 140.851V140.851Z" fill="#F4A586"/>
<path d="M234.332 135.196C233.526 135.184 233.302 135.904 233.371 136.603C233.431 137.194 233.672 137.734 233.796 138.311C233.966 139.105 233.708 139.513 233.487 140.211C233.452 140.322 233.563 140.415 233.666 140.391C235.829 139.895 232.848 136.159 234.376 135.524C234.541 135.455 234.535 135.199 234.332 135.196Z" fill="#F4A586"/>
<path d="M379.144 109.546C379.144 138.887 355.38 162.674 326.065 162.674C296.75 162.674 272.986 138.887 272.986 109.546C272.986 80.2043 296.75 56.4175 326.065 56.4175C355.38 56.4175 379.144 80.2043 379.144 109.546Z" fill="#82CBF1"/>
<path d="M313.013 161.054L314.427 148.517L300.73 134.121L285.053 143.275C292.134 151.89 301.872 158.234 313.013 161.054Z" fill="#F9C6D2"/>
<path d="M342.645 111.587C338.926 107.696 332.134 109.327 326.808 108.571C322.667 107.984 318.527 107.397 314.387 106.809C313.4 106.669 312.395 106.53 311.41 106.683C309.98 106.907 308.723 107.727 307.517 108.527C304.061 110.817 300.605 113.108 297.149 115.399C293.455 117.846 293.797 123.17 293.297 127.19C292.711 131.918 292.274 136.666 291.931 141.418C291.73 144.209 291.561 147.002 291.422 149.797C300.719 157.821 312.825 162.674 326.065 162.674C338.88 162.674 350.634 158.128 359.806 150.56L359.2 126.511C359.095 122.376 353.765 118.447 350.896 115.567L342.645 111.587V111.587Z" fill="#F2694A"/>
<path d="M365.598 144.994C364.999 142.736 364.601 141.393 364.601 141.393C364.601 141.393 350.775 145.816 343.149 146.365C343.794 150.482 344.728 154.756 345.767 158.891C353.417 155.828 360.188 151.035 365.598 144.994V144.994Z" fill="#F9C6D2"/>
<path d="M339.462 129.907C339.361 137.099 341.703 149.63 343.732 158.093C344.525 158.357 345.31 158.578 346.085 158.761C354.352 155.389 361.578 149.992 367.148 143.185C365.292 134.748 361.926 123.658 357.161 117.98C350.401 109.925 340.489 108.831 331.116 106.151L339.462 129.907V129.907Z" fill="#F2694A"/>
<path d="M318.338 105.46C313.698 105.875 300.643 108.8 297.526 111.589C292.721 115.886 286.198 127.437 282.265 139.56C285.684 144.548 289.93 148.921 294.807 152.484C294.89 152.477 294.972 152.47 295.056 152.461C297.221 150.049 299.392 144.363 304.964 137.239L318.338 105.46V105.46Z" fill="#F2694A"/>
<path d="M331.16 89.6277C332.253 95.5566 333.125 101.526 333.773 107.521C333.958 109.271 329.542 110.736 328.31 111.201C323.627 112.974 317.503 112.706 314.493 108.081C313.286 106.226 314.422 104.118 314.911 102.069C315.603 99.1745 316.275 96.2755 316.973 93.3826L331.16 89.6277V89.6277Z" fill="#EFB098"/>
<path d="M311.722 72.8853C309.496 73.636 307.562 75.4093 307.202 77.7627C307.037 78.8405 307.086 79.9376 307.12 81.0265C307.13 81.3302 307.138 81.6412 307.047 81.9303C306.932 82.3031 306.668 82.6067 306.474 82.9441C305.976 83.8126 305.957 84.8648 305.964 85.8656C305.973 87.0299 306.004 88.2167 306.38 89.3186C306.756 90.4202 307.538 91.4428 308.636 91.8265C309.08 91.9828 309.579 92.0261 310.017 91.8537C310.365 91.7177 310.65 91.4581 310.908 91.1871C311.744 90.3096 312.396 89.2575 312.809 88.1188L311.722 72.8853V72.8853Z" fill="#4F3D34"/>
<path d="M308.58 89.8151C308.959 86.3062 308.482 82.7498 309.129 79.2522C309.914 75.0181 312.202 71.6164 316.405 70.2887C320.903 68.8679 326.196 69.7574 330.08 72.3993C336.358 76.6719 337.085 85.8837 333.14 92.3777C329.196 98.8722 326.584 101.246 324.498 102.059C320.769 103.513 311.324 102.398 309.833 100.289C308.458 98.345 308.378 91.6908 308.58 89.8151V89.8151Z" fill="#FBC5AD"/>
<path d="M340.923 81.8254C340.786 80.4905 340.16 79.2532 338.874 78.4287C339.597 77.045 339.619 75.3702 339.202 73.8652C338.785 72.3604 337.959 71.0023 337.048 69.7346C335.239 67.2167 332.251 67.5156 332.251 67.5156C332.251 67.5156 331.732 65.5756 330.147 64.707C328.434 63.7687 326.543 63.2415 324.615 62.9555C322.437 62.6309 319.805 62.8801 318.16 64.4201C317.763 63.4834 315.51 63.5252 314.509 63.7014C311.88 64.1662 311.534 64.1142 310.056 66.3545C306.985 65.7287 303.224 69.1767 305.438 71.7914C304.556 72.516 304.688 74.0119 305.467 74.8444C306.133 75.5567 307.896 76.4205 308.778 75.7779C308.754 76.4984 309.141 77.1474 309.741 77.5304C310.325 77.9047 311.035 78.0273 311.726 78.0626C313.34 78.1443 314.974 77.7868 316.407 77.0393C317.746 78.5025 319.771 79.1851 321.751 79.2966C323.732 79.4079 325.701 79.0082 327.643 78.6107C327.302 79.3943 326.953 80.2109 326.984 81.0649C327.013 81.9201 327.541 82.8214 328.378 82.9875C327.579 83.7223 327.462 85.086 328.125 85.9467C329.171 87.3041 331.416 86.0316 330.966 88.3667C330.602 90.2433 329.695 93.9053 331.729 95.2393C333.259 96.2426 336.015 95.3715 337.07 94.0838C338.446 92.4034 338.996 90.0525 338.281 87.9755C338.265 87.9305 339.504 86.6413 339.62 86.4746C340.555 85.1381 341.085 83.4129 340.923 81.8254V81.8254Z" fill="#4F3D34"/>
<path d="M329.749 87.6106C330.147 87.2452 330.554 86.8733 331.047 86.6539C331.541 86.4352 332.144 86.3902 332.604 86.6755C332.975 86.9069 333.199 87.3149 333.365 87.7213C333.861 88.9344 333.98 90.3286 333.54 91.5634C333.099 92.799 332.059 93.84 330.782 94.1349C329.505 94.4306 328.039 93.8873 327.381 92.7534L329.749 87.6106V87.6106Z" fill="#FBC5AD"/>
<path d="M338.161 138.751C338.742 142.206 339.485 145.606 340.448 148.976C341.32 152.03 342.137 155.462 343.797 158.191C343.962 158.463 344.359 158.282 344.296 157.981C343.615 154.734 342.105 151.58 341.149 148.395C340.183 145.175 339.353 141.903 338.644 138.617C338.576 138.297 338.108 138.437 338.161 138.751V138.751Z" fill="#9A4C36"/>
<path d="M294.928 128.369C293.542 131.724 292.873 135.442 292.308 139.015C291.773 142.396 291.4 145.879 291.473 149.307C291.479 149.638 291.936 149.619 291.975 149.307C292.416 145.705 292.732 142.097 293.309 138.51C293.851 135.139 294.71 131.817 295.184 128.438C295.208 128.268 294.994 128.208 294.928 128.369Z" fill="#9A4C36"/>
<path d="M320.237 96.0108C319.501 96.7054 316.783 96.0074 315.931 95.864C314.886 95.6869 312.955 95.5997 312.164 94.8255C312.027 94.6924 311.786 94.7887 311.786 94.9825C311.785 96.3247 314.844 96.4201 315.74 96.5596C316.861 96.7342 319.658 97.353 320.498 96.272C320.641 96.0885 320.415 95.8425 320.237 96.0108V96.0108Z" fill="#E58AA8"/>
<path d="M361.618 82.8221C361.002 82.8221 360.497 82.3172 360.497 81.7003V72.7256C360.497 72.1085 361.002 71.6038 361.618 71.6038C362.235 71.6038 362.739 72.1085 362.739 72.7256V81.7003C362.739 82.3172 362.235 82.8221 361.618 82.8221Z" fill="#FEFEFE"/>
<path d="M367.222 77.2129C367.222 77.8301 366.718 78.3348 366.101 78.3348H357.135C356.519 78.3348 356.014 77.8301 356.014 77.2129C356.014 76.596 356.519 76.0913 357.135 76.0913H366.101C366.718 76.0913 367.222 76.596 367.222 77.2129Z" fill="#FEFEFE"/>
<path d="M486.422 193.683C486.422 223.025 462.658 246.812 433.343 246.812C404.027 246.812 380.263 223.025 380.263 193.683C380.263 164.342 404.027 140.556 433.343 140.556C462.658 140.556 486.422 164.342 486.422 193.683Z" fill="#82CBF1"/>
<path d="M428.667 193.253C421.535 193.957 413.474 197.24 408.332 201.639C399.523 209.175 396.679 219.771 394.907 230.324C400.24 235.928 406.786 240.365 414.121 243.218C416.101 229.995 418.831 217.044 422.35 205.545L428.667 193.253V193.253Z" fill="#5194CF"/>
<path d="M445.141 215.597C440.831 226.513 444.224 235.78 443.822 245.774C451.481 244.239 458.544 241.052 464.627 236.603C464.522 230.31 463.994 224.022 462.061 218.058C458.247 206.29 448.791 196.497 437.172 192.278L445.141 215.597V215.597Z" fill="#5194CF"/>
<path d="M406.099 225.562C405.705 228.864 405.533 232.233 406.184 235.494C406.495 237.053 406.99 238.566 407.475 240.082C415.129 244.366 423.95 246.812 433.343 246.812C440.963 246.812 448.206 245.201 454.756 242.307L454.844 241.293C456.291 224.558 454.394 207.189 440.633 195.924C440.273 195.629 439.896 195.33 439.449 195.199C438.739 194.99 437.985 195.234 437.277 195.445C433.283 196.634 428.994 196.811 424.918 195.954C424.266 195.818 423.567 195.659 422.953 195.918C422.619 196.059 422.347 196.311 422.086 196.561C417.918 200.563 415.489 205.683 411.935 210.146C408.338 214.662 406.782 219.853 406.099 225.562V225.562Z" fill="#5194CF"/>
<path d="M426.213 170.408C425.72 172.942 425.825 175.558 425.459 178.115C425.093 180.671 424.145 183.313 422.08 184.862C420.658 185.929 418.834 186.363 417.057 186.341C415.28 186.32 413.534 185.871 411.848 185.312C412.646 184.504 412.785 183.266 412.811 182.131C412.924 177.276 411.807 172.465 411.777 167.61C411.763 165.213 412.156 161.509 413.325 159.417C414.641 157.061 416.819 154.503 420.755 153.504L426.213 170.408V170.408Z" fill="#DF5C43"/>
<path d="M427.699 186.502C427.716 188.581 425.589 193.275 424.04 194.663C424.04 197.099 424.108 198.907 427.854 198.907C431.601 198.907 437.182 197.417 439.942 193.79C438.607 190.424 437.339 179.489 437.918 177.748L427.699 186.502V186.502Z" fill="#EFB098"/>
<path d="M418.407 161.92C416.03 164.668 416.495 170.698 417.367 174.03C417.966 176.322 417.878 178.732 418.181 181.081C418.484 183.431 419.292 185.887 421.185 187.309C422.796 188.518 424.941 188.778 426.948 188.609C431.631 188.214 436.081 185.609 438.72 181.717C441.359 177.825 442.136 172.724 440.773 168.222C440.282 166.598 439.531 165.06 438.635 163.619C436.331 159.917 432.818 156.729 428.541 155.898C424.263 155.066 419.292 157.178 417.801 161.276L418.407 161.92V161.92Z" fill="#FBC5AD"/>
<path d="M444.817 155.891C443.343 153.496 441.342 151.381 438.724 150.012C435.87 148.52 432.424 148.017 429.21 148.622C427.034 149.031 424.024 150.232 422.292 151.506C421.499 152.089 420.824 152.725 420.202 153.393L420.119 153.328C419.908 153.543 419.688 153.778 419.443 154.05C418.839 154.724 418.496 155.367 418.354 155.979C417.967 156.717 417.628 157.499 417.376 158.373C416.325 162.036 420.497 164.267 423.285 165.334C424.328 165.734 425.373 166.134 426.447 166.436C427.252 166.663 428.074 166.834 428.864 167.112C430.868 167.817 432.615 169.216 433.774 171C434.931 172.783 435.497 174.938 435.399 177.062C436.59 175.426 437.245 173.405 437.236 171.381C438.05 174.239 438.375 177.234 438.201 180.201C438.12 181.569 438.043 182.713 437.531 184C437.377 184.387 435.932 187.689 435.518 187.574C438.925 188.521 442.771 187.316 445.293 185.001C453.259 177.696 449.718 163.856 444.817 155.891V155.891Z" fill="#DF5C43"/>
<path d="M436.929 174.395C436.691 174.223 436.911 173.855 437.132 173.66C437.577 173.269 438.031 172.872 438.575 172.637C439.118 172.402 439.776 172.351 440.286 172.651C440.769 172.934 441.042 173.476 441.205 174.011C441.778 175.894 441.25 178.069 439.878 179.477C439.325 180.044 438.589 180.508 437.799 180.463C437.01 180.418 436.244 179.686 436.393 178.909L436.929 174.395V174.395Z" fill="#FBC5AD"/>
<path d="M422.485 181.677C422.346 182.118 422.667 184.216 424.515 184.62C426.066 184.959 428.925 183.811 428.58 182.266C428.315 181.677 422.623 181.236 422.485 181.677Z" fill="#F2694A"/>
<path d="M408.647 214.065C406.451 217.492 405.106 221.319 404.75 225.381C404.358 229.869 405.442 233.979 406.922 238.173C407.153 238.827 407.373 239.484 407.583 240.143C407.979 240.363 408.377 240.578 408.778 240.788C407.436 236.41 405.65 232.364 405.57 227.693C405.49 222.989 406.712 218.375 409.041 214.295C409.187 214.039 408.805 213.819 408.647 214.065V214.065Z" fill="#4B6FB4"/>
<path d="M440.398 222.192C438.895 230.234 440.571 238.22 440.948 246.266C441.227 246.226 441.506 246.185 441.784 246.14C441.337 238.184 439.587 230.267 440.797 222.303C440.837 222.044 440.447 221.926 440.398 222.192V222.192Z" fill="#4B6FB4"/>
<path d="M425.15 203.906C423.51 213.707 422.539 223.715 422.937 233.659C422.943 233.819 423.182 233.821 423.185 233.659C423.405 223.713 423.959 213.848 425.537 204.013C425.577 203.76 425.193 203.651 425.15 203.906Z" fill="#4B6FB4"/>
<path d="M421.196 209.801C421.207 209.833 421.22 209.865 421.232 209.897C421.436 210.436 421.938 210.638 422.461 210.397C422.585 210.339 422.703 210.221 422.761 210.097C423.002 209.574 422.799 209.07 422.261 208.867C422.228 208.855 422.197 208.843 422.165 208.83C421.625 208.626 420.991 209.26 421.196 209.801Z" fill="#4B6FB4"/>
<path d="M420.126 216.089C420.172 216.331 420.275 216.553 420.393 216.767C420.678 217.29 421.426 217.362 421.835 216.953C422.24 216.548 422.172 215.793 421.648 215.511C421.432 215.394 421.211 215.292 420.969 215.247C420.436 215.148 420.024 215.553 420.126 216.089V216.089Z" fill="#4B6FB4"/>
<path d="M420.449 224.101C421.511 224.101 421.513 222.448 420.449 222.448C419.387 222.448 419.385 224.101 420.449 224.101Z" fill="#4B6FB4"/>
<path d="M420.393 231.219C420.311 231.174 420.235 231.11 420.155 231.057C419.702 230.756 419.094 231.155 419.094 231.667C419.094 232.179 419.702 232.577 420.155 232.276C420.235 232.223 420.311 232.159 420.393 232.115C420.73 231.93 420.73 231.404 420.393 231.219V231.219Z" fill="#4B6FB4"/>
<path d="M468.896 161.885C468.28 161.885 467.774 161.38 467.774 160.763V151.789C467.774 151.172 468.28 150.667 468.896 150.667C469.512 150.667 470.017 151.172 470.017 151.789V160.763C470.017 161.38 469.512 161.885 468.896 161.885Z" fill="#FEFEFE"/>
<path d="M474.5 156.276C474.5 156.893 473.996 157.398 473.379 157.398H464.413C463.796 157.398 463.292 156.893 463.292 156.276C463.292 155.659 463.796 155.154 464.413 155.154H473.379C473.996 155.154 474.5 155.659 474.5 156.276Z" fill="#FEFEFE"/>
<path d="M411.167 299.456C411.167 328.797 387.403 352.584 358.089 352.584C328.772 352.584 305.009 328.797 305.009 299.456C305.009 270.114 328.772 246.327 358.089 246.327C387.403 246.327 411.167 270.114 411.167 299.456Z" fill="#82CBF1"/>
<path d="M322.549 317.501C320.483 319.884 317.139 324.904 314.236 329.395C317.689 334.452 321.993 338.88 326.94 342.475C329.714 338.871 332.241 335.171 334.242 332.204C335.252 330.706 337.206 327.29 337.72 325.558L322.549 317.501V317.501Z" fill="#EFB098"/>
<path d="M356.354 293.525C352.389 292.745 343.353 295.1 339.421 296.035C336.909 296.631 326.735 306.718 316.942 323.418C322.59 328.601 330.357 332.328 336.272 332.488C337.7 328.604 339.985 324.986 341.277 321.096C342.553 317.249 344.324 313.672 346.308 310.094L356.354 293.525V293.525Z" fill="#F2694A"/>
<path d="M331.295 345.325C333.249 332.913 335.25 321.684 335.989 320.164C336.943 318.156 338.111 316.246 338.948 314.18C341.364 308.332 341.324 301.257 345.57 296.598C345.941 296.189 346.952 296.442 346.505 296.755L353.535 299.191C357.158 298.49 365.939 297.885 368.686 294.65C371.802 296.618 376.825 303.518 379.201 306.344C380.039 307.338 380.876 308.449 381.694 309.657C383.389 318.883 385.016 331.304 386.005 344.647C377.894 349.677 368.331 352.584 358.088 352.584C348.315 352.584 339.16 349.937 331.295 345.325Z" fill="#F2694A"/>
<path d="M338.073 314.177C335.472 320.436 334.356 327.451 333.04 334.065C332.316 337.706 331.525 341.38 330.863 345.069C331.279 345.319 331.699 345.562 332.123 345.8C334.115 335.273 335.235 324.509 338.694 314.348C338.831 313.947 338.228 313.806 338.073 314.177V314.177Z" fill="#AE5A38"/>
<path d="M366.15 277.242C367.214 283.011 368.061 288.819 368.691 294.65C367.272 296.93 363.296 300.435 359.928 300.544C349.213 300.89 349.213 295.225 349.213 293.88C349.763 291.937 351.302 285.224 352.347 280.896L366.15 277.242V277.242Z" fill="#EFB098"/>
<path d="M348.64 259.835C346.17 260.327 344.227 262.352 343.173 264.641C342.119 266.93 341.81 269.481 341.513 271.984C341.436 272.639 341.358 273.308 341.491 273.955C341.695 274.948 343.039 277.687 343.994 278.023C344.95 278.358 345.485 276.259 346.204 275.543C346.601 275.147 346.86 274.637 347.112 274.135C347.996 272.376 348.88 270.617 349.763 268.856L348.64 259.835V259.835Z" fill="#3D3E7A"/>
<path d="M343.491 275.776C344.295 272.437 344.28 268.948 345.343 265.654C346.629 261.668 349.262 258.673 353.484 257.918C358 257.112 362.996 258.633 366.412 261.669C371.935 266.578 371.484 275.558 366.865 281.329C362.248 287.099 359.429 289.062 357.315 289.585C353.536 290.519 344.563 288.259 343.388 286.038C342.306 283.99 343.061 277.56 343.491 275.776Z" fill="#FBC5AD"/>
<path d="M345.591 253.057C346.609 253.992 348.077 254.211 349.097 254.077C353.107 253.553 357.224 253.46 361.157 254.401C365.09 255.342 368.844 257.388 371.341 260.572C373.25 263.007 374.374 266.214 373.72 269.24C374.914 274.897 373.013 278.26 372.335 279.905C371.785 281.238 369.428 282.943 368.08 283.453C366.732 283.964 366.407 284.017 364.334 284.017C364.334 282.745 364.514 281.469 364.587 280.199C364.681 278.572 365.566 277.224 365.585 275.553C365.032 275.619 364.541 275.871 364.191 276.303C363.748 276.848 361.978 278.466 361.626 278.373C360.81 278.158 361.534 277.052 361.756 276.639C363.031 274.26 364.478 271.7 364.054 269.034C364.008 268.742 363.934 268.444 363.761 268.203C363.376 267.67 362.637 267.577 361.986 267.491C359.702 267.194 357.505 266.464 355.363 265.641C354.478 265.3 353.699 265.126 352.79 264.935C351.794 264.724 350.831 264.058 349.988 263.51C348.363 262.454 346.864 261.102 346.019 259.356C345.366 258.005 344.539 254.126 345.591 253.057V253.057Z" fill="#3D3E7A"/>
<path d="M352.446 281.719C352.498 281.7 352.521 281.625 352.489 281.579C350.653 280.944 348.818 280.31 346.982 279.676C346.928 279.658 346.86 279.642 346.819 279.683C346.794 279.709 346.791 279.748 346.788 279.785C346.768 280.16 346.748 280.534 346.726 280.909C346.702 281.337 346.68 281.778 346.816 282.185C346.937 282.543 347.177 282.854 347.456 283.111C348.23 283.823 349.342 284.146 350.379 283.971C350.812 283.897 351.24 283.736 351.566 283.442C351.893 283.149 352.531 282.015 352.489 281.579L352.446 281.719V281.719Z" fill="#F2694A"/>
<path d="M364.191 276.303C364.62 276 365.059 275.693 365.563 275.543C366.065 275.393 366.654 275.426 367.062 275.76C367.391 276.029 367.556 276.451 367.665 276.863C367.992 278.097 367.932 279.457 367.352 280.593C366.772 281.729 365.639 282.604 364.371 282.728C363.102 282.852 361.755 282.144 361.261 280.968L364.191 276.303Z" fill="#FBC5AD"/>
<path d="M383.086 346.332C381.511 341.934 380.55 337.429 379.124 332.951L395.462 324.569C396.491 327.769 397.395 331.01 398.173 334.282C393.938 339.161 388.827 343.259 383.086 346.332Z" fill="#EFB098"/>
<path d="M368.691 294.65C373.23 295.598 387.394 300.51 391.898 307.38C393.093 309.203 397.576 323.942 399.277 332.964C396.481 336.403 393.266 339.485 389.707 342.131C387.072 342.339 384.056 341.931 380.277 341.134C378.258 337.91 377.32 324.266 375.825 316.663L368.691 294.65V294.65Z" fill="#F2694A"/>
<path d="M376.39 325.615C376.849 328.442 377.409 331.238 378.161 334.002C378.84 336.498 379.502 339.266 380.829 341.505C381.049 341.876 381.611 341.628 381.515 341.215C380.904 338.577 379.651 336.048 378.857 333.45C378.058 330.832 377.399 328.171 376.804 325.501C376.742 325.227 376.346 325.347 376.39 325.615V325.615Z" fill="#AE5A38"/>
<path fill-rule="evenodd" clip-rule="evenodd" d="M420.162 277.54C420.162 286.004 413.306 292.866 404.85 292.866C396.393 292.866 389.538 286.004 389.538 277.54C389.538 269.076 396.393 262.214 404.85 262.214C413.306 262.214 420.162 269.076 420.162 277.54Z" fill="url(#paint0_linear)"/>
<path d="M404.85 283.149C404.233 283.149 403.728 282.645 403.728 282.027V273.054C403.728 272.436 404.233 271.931 404.85 271.931C405.466 271.931 405.97 272.436 405.97 273.054V282.027C405.97 282.645 405.466 283.149 404.85 283.149Z" fill="#FEFEFE"/>
<path d="M410.454 277.54C410.454 278.157 409.949 278.663 409.332 278.663H400.366C399.75 278.663 399.246 278.157 399.246 277.54C399.246 276.923 399.75 276.418 400.366 276.418H409.332C409.949 276.418 410.454 276.923 410.454 277.54Z" fill="#FEFEFE"/>
<path d="M361.309 204.444C361.309 217.426 350.795 227.949 337.825 227.949C324.856 227.949 314.342 217.426 314.342 204.444C314.342 191.463 324.856 180.939 337.825 180.939C350.795 180.939 361.309 191.463 361.309 204.444Z" fill="#BAE5FA"/>
<path d="M355.184 220.275C354.214 217.264 353.061 214.486 352.09 212.676C351.032 210.706 349.508 209.425 347.697 208.547C347.703 208.406 347.695 208.265 347.669 208.124C347.462 207.017 346.682 205.89 346.26 204.839C346.123 204.497 345.983 204.142 346 203.773C346.041 202.846 346.997 202.257 347.431 201.436C347.788 200.761 347.76 199.898 347.36 199.248C346.952 198.583 346.217 198.168 345.816 197.5C345.367 196.754 345.405 195.828 345.305 194.964C344.957 191.971 343.095 188.418 340.086 187.437C338.635 186.964 336.862 186.976 335.707 187.889C334.795 187.298 333.579 187.247 332.563 187.65C331.482 188.077 330.62 188.952 330.029 189.953C329.273 191.234 329.048 192.55 328.782 193.973C328.516 195.386 328.687 197.183 328.008 198.471C327.544 199.353 326.599 200.013 326.482 201.004C326.414 201.585 326.663 202.168 327.028 202.624C327.577 203.309 328.414 203.824 328.628 204.675C328.871 205.639 328.209 206.568 327.655 207.392C327.099 208.217 326.619 209.33 327.175 210.153C327.274 210.298 327.395 210.417 327.532 210.516C325.866 212.218 324.534 214.316 323.056 216.375C322.431 217.245 321.593 218.817 320.665 220.487C324.951 225.078 331.053 227.949 337.825 227.949C344.702 227.949 350.889 224.99 355.184 220.275V220.275Z" fill="#7BD2F6"/>
<path d="M363.577 191.271C363.577 195.159 360.428 198.311 356.543 198.311C352.657 198.311 349.509 195.159 349.509 191.271C349.509 187.383 352.657 184.23 356.543 184.23C360.428 184.23 363.577 187.383 363.577 191.271Z" fill="#7BD2F6"/>
<path d="M356.543 193.848C356.259 193.848 356.028 193.616 356.028 193.332V189.21C356.028 188.926 356.259 188.694 356.543 188.694C356.826 188.694 357.058 188.926 357.058 189.21V193.332C357.058 193.616 356.826 193.848 356.543 193.848Z" fill="#FEFEFE"/>
<path d="M359.117 191.271C359.117 191.554 358.886 191.787 358.602 191.787H354.484C354.2 191.787 353.968 191.554 353.968 191.271C353.968 190.987 354.2 190.755 354.484 190.755H358.602C358.886 190.755 359.117 190.987 359.117 191.271Z" fill="#FEFEFE"/>
<path d="M463.783 87.7207C463.783 101.44 452.672 112.561 438.966 112.561C425.259 112.561 414.148 101.44 414.148 87.7207C414.148 74.0015 425.259 62.8801 438.966 62.8801C452.672 62.8801 463.783 74.0015 463.783 87.7207Z" fill="#BAE5FA"/>
<path d="M458.212 103.403C457.864 102.845 457.501 102.334 457.123 101.883C453.576 97.6562 448.525 96.7483 443.573 95.4565C443.329 93.253 443.03 91.0559 442.682 88.8667C443.588 89.236 444.965 88.7672 445.522 88.0862C446.317 87.1165 446.635 85.7591 446.222 84.5596C446.213 84.5339 446.927 83.7896 446.995 83.6935C447.535 82.9216 447.841 81.9249 447.747 81.0089C447.669 80.2389 447.307 79.5243 446.564 79.0482C446.982 78.2493 446.995 77.2821 446.754 76.4135C446.513 75.5449 446.035 74.7604 445.51 74.0288C444.466 72.5753 442.74 72.7475 442.74 72.7475C442.74 72.7475 442.441 71.6272 441.525 71.1257C440.537 70.5839 439.445 70.2802 438.331 70.1144C437.075 69.9277 435.554 70.071 434.606 70.9598C434.376 70.4188 433.075 70.4438 432.497 70.5455C430.979 70.8131 430.779 70.7843 429.926 72.0767C428.153 71.7153 425.982 73.7067 427.26 75.2163C426.75 75.6347 426.827 76.4985 427.276 76.9791C427.548 77.2701 428.138 77.5985 428.64 77.6378C428.464 77.9529 428.335 78.2941 428.278 78.6636C428.183 79.2862 428.211 79.9193 428.231 80.5482C428.237 80.7229 428.241 80.9023 428.189 81.07C428.123 81.2846 427.97 81.4602 427.857 81.6555C427.571 82.1564 427.56 82.7638 427.564 83.3416C427.569 84.014 427.586 84.699 427.804 85.3353C428.012 85.9442 428.436 86.5069 429.027 86.7494C429.019 88.337 429.187 90.8058 429.797 91.6689C430.156 92.1761 431.313 92.5838 432.696 92.826C432.504 93.5671 432.193 94.3194 432.18 95.0383C428.83 95.6768 424.072 96.9575 422.692 98.1922C421.622 99.1501 420.403 100.733 419.18 102.716C423.711 108.697 430.887 112.561 438.966 112.561C446.73 112.561 453.661 108.991 458.212 103.403V103.403Z" fill="#7BD2F6"/>
<path d="M464.221 70.4729C464.221 74.3618 461.072 77.5141 457.188 77.5141C453.302 77.5141 450.153 74.3618 450.153 70.4729C450.153 66.5849 453.302 63.4326 457.188 63.4326C461.072 63.4326 464.221 66.5849 464.221 70.4729Z" fill="#7BD2F6"/>
<path d="M457.188 73.0501C456.903 73.0501 456.672 72.8184 456.672 72.5347V68.4121C456.672 68.1284 456.903 67.896 457.188 67.896C457.47 67.896 457.702 68.1284 457.702 68.4121V72.5347C457.702 72.8184 457.47 73.0501 457.188 73.0501Z" fill="#FEFEFE"/>
<path d="M459.762 70.4732C459.762 70.7569 459.53 70.9892 459.247 70.9892H455.128C454.844 70.9892 454.613 70.7569 454.613 70.4732C454.613 70.1904 454.844 69.958 455.128 69.958H459.247C459.53 69.958 459.762 70.1904 459.762 70.4732Z" fill="#FEFEFE"/>
<path fill-rule="evenodd" clip-rule="evenodd" d="M245.18 381.773C282.055 381.773 311.948 382.58 311.948 383.576C311.948 384.572 282.055 385.379 245.18 385.379C208.305 385.379 178.411 384.572 178.411 383.576C178.411 382.58 208.305 381.773 245.18 381.773Z" fill="#373435" fill-opacity="0.14902"/>
<defs>
<linearGradient id="paint0_linear" x1="411.234" y1="300.059" x2="400.007" y2="260.533" gradientUnits="userSpaceOnUse">
<stop stop-color="#4876B9"/>
<stop offset="1" stop-color="#36ACE2"/>
</linearGradient>
</defs>
</svg>
