<svg width="450" height="359" viewBox="0 0 450 359" fill="none" xmlns="http://www.w3.org/2000/svg">
<path d="M147.367 353.231C147.367 356.122 114.376 358.465 73.6826 358.465C32.9887 358.465 0 356.122 0 353.231C0 350.342 32.9887 347.999 73.6826 347.999C114.376 347.999 147.367 350.342 147.367 353.231Z" fill="#E6E6E6" fill-opacity="0.301961"/>
<path d="M195.696 353.231C195.696 356.122 179.053 358.465 158.517 358.465C137.986 358.465 121.34 356.122 121.34 353.231C121.34 350.342 137.986 347.999 158.517 347.999C179.053 347.999 195.696 350.342 195.696 353.231Z" fill="#E6E6E6" fill-opacity="0.301961"/>
<path d="M372.941 353.231C372.941 356.122 331.086 358.465 279.458 358.465C227.828 358.465 185.973 356.122 185.973 353.231C185.973 350.342 227.828 347.999 279.458 347.999C331.086 347.999 372.941 350.342 372.941 353.231Z" fill="#E6E6E6" fill-opacity="0.301961"/>
<path d="M433.378 353.231C433.378 356.122 405.668 358.465 371.489 358.465C337.308 358.465 309.601 356.122 309.601 353.231C309.601 350.342 337.308 347.999 371.489 347.999C405.668 347.999 433.378 350.342 433.378 353.231Z" fill="#E6E6E6" fill-opacity="0.301961"/>
<path d="M196.934 337.427C196.934 337.427 195.173 348.458 195.853 350.381C196.532 352.304 208.807 354.114 216.841 352.926C216.841 352.926 217.689 349.25 216.841 348.344C215.991 347.438 196.934 337.427 196.934 337.427Z" fill="white"/>
<path d="M200.718 325.548C200.718 325.548 196.802 328.135 197.111 329.572C197.42 331.009 196.184 347.288 197.731 348.73C199.275 350.173 214.936 351.513 216.584 350.585C218.233 349.658 218.748 342.033 212.875 339.972L212.258 326.063L200.718 325.548Z" fill="#1A1A1A"/>
<path d="M212.875 339.972L212.873 339.921C209.136 339.882 205.349 339.77 202.827 343.096C201.538 344.795 200.776 347.249 200.568 349.658C205.576 350.659 215.305 351.305 216.584 350.585C218.233 349.658 218.748 342.033 212.875 339.972Z" fill="white"/>
<path d="M201.398 325.548C201.398 325.548 198.581 331.39 205.92 333.021C213.258 334.652 212.258 326.063 212.258 326.063L201.398 325.548Z" fill="#A86267"/>
<path d="M320.43 298.049C320.43 298.049 323.475 304.959 324.997 306.131C326.519 307.301 333.781 299.828 333.781 299.828L330.268 290.2L320.43 298.049Z" fill="#A86267"/>
<path d="M329.303 317.833C329.303 317.833 330.707 320.333 332.393 320.687C334.08 321.043 358.225 309.236 359.734 302.579C359.734 302.579 359.201 299.828 357.249 299.828C355.295 299.828 329.303 317.833 329.303 317.833Z" fill="white"/>
<path d="M201.348 172.109C201.348 172.109 202.3 203.489 203.875 209.531C205.45 215.57 207.583 262.326 210.472 270.206C210.472 270.206 200.492 314.592 199.703 325.361C199.703 325.361 203.381 332.977 214.936 327.725C214.936 327.725 238.311 280.448 237.786 274.145C237.261 267.842 243.566 209.131 246.455 207.556C249.344 205.981 287.425 247.881 291.627 249.72C291.627 249.72 315.002 299.884 319.73 300.409C324.458 300.934 333.124 294.631 333.124 292.531C333.124 290.428 312.113 231.598 308.963 226.607C305.81 221.618 266.414 177.588 266.414 177.588L201.348 172.109Z" fill="#F2444D"/>
<path d="M218.184 184.9C226.216 185.45 234.319 185.635 242.366 185.919C246.908 186.08 251.459 186.148 256.001 185.948C259.156 185.808 261.931 185.501 264.977 186.487C267.981 187.459 271.154 189.037 274.374 188.071C274.737 187.962 275.064 187.813 275.383 187.655C270.137 181.749 266.414 177.588 266.414 177.588L201.349 172.109C201.349 172.109 201.462 175.792 201.672 180.876C206.568 183.724 212.63 184.521 218.184 184.9Z" fill="#F2444D" fill-opacity="0.301961"/>
<path d="M238.313 263.664C237.387 263.121 236.363 262.799 235.243 262.787C228.728 262.723 225.829 271.956 224.404 276.882C222.724 282.684 221.906 288.699 219.792 294.378C216.985 301.912 212.313 310.311 206.146 315.636C204.293 317.236 202.497 317.448 200.893 316.836C200.278 320.45 199.845 323.442 199.703 325.361C199.703 325.361 203.381 332.977 214.936 327.725C214.936 327.725 238.311 280.448 237.786 274.145C237.671 272.77 237.883 268.894 238.313 263.664Z" fill="#F2444D" fill-opacity="0.301961"/>
<path d="M328.878 279.396C328.234 280.417 327.384 281.292 326.251 281.885C322.361 283.924 318.089 282.194 315.354 279.134C313.553 277.12 312.237 274.744 310.966 272.376C308.996 268.705 307.046 265.021 305.224 261.272C303.624 257.977 302.067 254.637 300.774 251.209C299.606 248.114 298.785 244.702 296.767 242.019C294.382 238.852 290.009 238.064 286.819 235.943C284.122 234.153 281.906 231.781 279.899 229.265C276.205 224.64 272.956 219.731 269.502 214.936C266.208 210.363 262.121 205.099 256.411 203.565C253.619 202.816 248.701 202.878 247.756 206.267C247.614 206.78 247.583 207.319 247.6 207.863C254.64 211.792 287.727 248.013 291.627 249.72C291.627 249.72 315.002 299.884 319.73 300.409C324.458 300.934 333.124 294.631 333.124 292.531C333.124 291.929 331.405 286.687 328.878 279.396Z" fill="#F2444D" fill-opacity="0.301961"/>
<path d="M322.364 303.378C322.364 304.622 327.956 318.201 330.174 318.379C332.393 318.558 357.78 304.177 358.225 300.716C358.667 297.252 349.793 290.951 343.222 299.118C343.222 299.118 336.388 300.804 335.855 298.051C335.323 295.3 330.707 294.236 330.353 298.407C329.997 302.579 322.364 303.378 322.364 303.378Z" fill="#1A1A1A"/>
<path d="M344.923 297.361C344.375 299.451 344.775 302.299 345.199 303.882C345.728 305.849 346.883 307.43 348.283 308.806C353.594 305.443 358.041 302.147 358.225 300.716C358.63 297.544 351.22 291.999 344.923 297.361Z" fill="white"/>
<path d="M151.094 266.609C151.094 266.609 153.475 296.861 152.914 300.641C152.354 304.424 153.055 332.574 151.094 334.814H145.912C145.912 334.814 137.368 301.202 137.088 286.918C136.808 272.632 135.828 256.945 135.828 256.945L151.094 266.609Z" fill="#FFD8A5"/>
<path d="M142.454 272.819C145.003 275.117 148.275 280.961 152.171 281.535C151.656 273.756 151.094 266.609 151.094 266.609L135.828 256.945C135.828 256.945 136.182 262.622 136.526 270.253C138.565 270.233 140.716 271.256 142.454 272.819Z" fill="#FFD8A5" fill-opacity="0.301961"/>
<path d="M144.415 298.747C139.298 298.747 136.376 295.92 137.033 297.93C137.692 299.937 140.904 334.814 142.242 345.007H153.001C153.001 345.007 155.396 298.496 154.426 296.857C153.001 294.448 144.415 298.747 144.415 298.747Z" fill="#726256"/>
<path d="M151.866 307.799C150.594 309.03 150.225 311.106 149.986 312.784C149.538 315.926 149.851 319.138 149.937 322.293C150.05 326.417 150.083 331.907 147.756 335.508C145.619 338.817 143.266 338.16 141.213 336.039C141.61 339.74 141.966 342.902 142.242 345.007H153.001C153.001 345.007 154.23 321.14 154.57 306.998C153.689 306.769 152.739 306.955 151.866 307.799Z" fill="#726256" fill-opacity="0.301961"/>
<path d="M157.136 350.515C156.771 344.354 152.737 339.497 147.804 339.497C142.868 339.497 138.834 344.354 138.47 350.515H157.136Z" fill="#998575"/>
<path d="M157.136 353.231H138.47V350.515H157.136V353.231Z" fill="#726256"/>
<path d="M165.942 266.609C165.942 266.609 163.562 296.861 164.122 300.642C164.682 304.424 163.982 332.574 165.942 334.814H171.125C171.125 334.814 179.668 301.202 179.948 286.918C180.228 272.632 181.209 256.945 181.209 256.945L165.942 266.609Z" fill="#FFD8A5"/>
<path d="M175.637 274.232C177.088 272.323 178.752 271.038 180.498 270.525C180.846 262.758 181.209 256.945 181.209 256.945L165.942 266.609C165.942 266.609 165.323 274.481 164.791 282.697C169.282 282.077 172.544 278.294 175.637 274.232Z" fill="#FFD8A5" fill-opacity="0.301961"/>
<path d="M172.622 298.747C177.739 298.747 180.661 295.92 180.004 297.93C179.345 299.937 176.133 334.814 174.794 345.007H164.036C164.036 345.007 161.641 298.496 162.611 296.857C164.036 294.448 172.622 298.747 172.622 298.747Z" fill="#726256"/>
<path d="M175.538 329.273C173.827 331.746 171.825 334.715 168.998 336.039C167.054 336.949 165.23 336.597 163.579 335.613C163.838 341.146 164.036 345.007 164.036 345.007H174.794C175.264 341.424 175.966 334.792 176.707 327.612C176.314 328.167 175.919 328.721 175.538 329.273Z" fill="#726256" fill-opacity="0.301961"/>
<path d="M159.901 350.515C160.265 344.354 164.299 339.497 169.233 339.497C174.168 339.497 178.202 344.354 178.567 350.515H159.901Z" fill="#998575"/>
<path d="M159.901 353.231H178.567V350.515H159.901V353.231Z" fill="#726256"/>
<path d="M197.545 224.721C193.079 200.347 173.565 163.609 173.565 163.609L158.519 159.229L143.472 163.609C143.472 163.609 123.957 200.347 119.491 224.721C115.025 249.094 113.849 259.019 119.491 264.723C125.133 270.426 128.191 265.242 138.534 265.242C148.879 265.242 145.588 275.354 158.519 275.354C171.448 275.354 168.158 265.242 178.503 265.242C188.848 265.242 191.903 270.426 197.545 264.723C203.187 259.019 202.014 249.094 197.545 224.721Z" fill="#FDB879"/>
<path d="M197.546 224.721C193.08 200.347 173.566 163.609 173.566 163.609L158.52 159.229L143.472 163.609C143.472 163.609 142.346 165.732 140.584 169.269C145.198 171.983 151.344 171.427 156.71 171.58C162.857 171.752 168.464 173.534 172.773 178.111C176.762 182.349 179.776 187.958 182.216 193.198C185.113 199.423 187.068 206.069 188.252 212.823C189.448 219.647 189.858 226.644 189.166 233.546C188.793 237.258 187.556 240.569 185.912 243.913C184.743 246.292 182.708 250.797 179.659 251.26C175.736 251.855 175.242 245.367 175.143 242.917C174.499 227.142 174.437 210.62 166.864 196.355C166.149 202.087 166.82 207.846 166.907 213.61C166.993 219.476 167.317 225.326 167.512 231.19C167.772 238.912 168.641 247.91 165.612 255.222C163.345 260.689 157.485 266.008 151.264 266.1C143.96 266.207 143.678 257.378 143.872 252.047C144.216 242.589 147.125 233.161 145.418 223.72C141.673 229.761 139.953 236.709 138.263 243.561C137.046 248.495 135.798 254.818 131.62 258.162C131.332 258.391 130.968 258.154 130.846 257.882C130.132 256.291 130.064 254.596 129.889 252.903C128.752 255.541 127.259 258.138 124.331 255.08C121.032 251.637 118.922 246.098 117.783 241.58C117.524 240.547 117.31 239.503 117.116 238.453C114.837 253.134 115.055 260.238 119.492 264.723C125.134 270.426 128.192 265.242 138.535 265.242C148.88 265.242 145.589 275.354 158.52 275.354C171.449 275.354 168.159 265.242 178.504 265.242C188.849 265.242 191.904 270.426 197.546 264.723C203.188 259.019 202.012 249.094 197.546 224.721Z" fill="#FDB879" fill-opacity="0.301961"/>
<path d="M206.196 127.346C206.196 127.346 188.22 106.022 183.179 102.835C178.138 99.6471 158.519 98.9861 158.519 98.9861C158.519 98.9861 138.898 99.6471 133.858 102.835C128.817 106.022 114.432 124.636 114.432 124.636V142.344C114.432 142.344 135.925 121.389 134.994 123.837C133.876 126.782 132.845 130.385 133.716 131.965C135.313 134.86 137.951 140.843 137.951 140.843L142.075 165.73C142.075 165.73 146.159 169.94 158.519 169.94C170.878 169.94 174.961 165.73 174.961 165.73L179.086 140.843C179.086 140.843 181.723 134.86 183.321 131.965C184.219 130.338 183.097 126.568 181.944 123.578C181.044 121.251 202.605 142.641 202.605 142.641L206.196 127.346Z" fill="#0E609C"/>
<path d="M118.719 119.231C116.205 122.342 114.432 124.636 114.432 124.636V142.344C114.432 142.344 119.736 137.174 124.96 132.269C121.487 129.051 119.629 124.183 118.719 119.231Z" fill="#0E609C" fill-opacity="0.301961"/>
<path d="M199.996 120.147C199.458 125.674 198.147 131.147 194.947 135.14C199.084 139.147 202.605 142.641 202.605 142.641L206.196 127.346C206.196 127.346 203.544 124.2 199.996 120.147Z" fill="#0E609C" fill-opacity="0.301961"/>
<path d="M183.2 132.098C181.849 130.498 179.697 131.326 178.4 132.586C177.337 133.616 176.551 134.888 175.367 135.801C172.643 137.903 168.687 138.574 165.504 137.213C164.606 136.828 163.401 136.229 162.642 135.58C162.304 135.292 162.106 134.736 161.783 134.485C160.305 133.338 157.348 136.169 155.927 136.816C152.682 138.296 149.132 138.706 145.625 138.346C148.415 140.238 152.276 140.831 155.497 140.837C159.629 140.843 163.105 140.732 167.104 141.947C169.225 142.592 171.465 143.353 172.956 145.083C174.617 147.01 174.86 149.963 174.731 152.401C174.463 157.421 171.553 161.58 166.927 163.549C163.811 164.875 160.438 164.861 157.113 164.669C154.026 164.492 150.827 164.371 147.88 163.347C145.125 162.394 142.858 160.45 140.854 158.356L142.075 165.73C142.075 165.73 146.159 169.94 158.519 169.94C170.878 169.94 174.961 165.73 174.961 165.73L179.086 140.843C179.086 140.843 181.622 135.09 183.226 132.14C183.216 132.125 183.21 132.111 183.2 132.098Z" fill="#0E609C" fill-opacity="0.301961"/>
<path d="M158.519 98.9861C158.519 98.9861 145.724 99.4185 138.145 101.263C137.111 102.353 136.604 103.856 137.095 106.078C137.539 108.089 138.964 109.52 140.646 110.587C142.951 112.047 145.893 112.533 148.557 112.852C154.772 113.6 161.33 113.338 167.573 113.291C171.226 113.262 174.928 113.029 178.546 112.498C182.878 111.86 186.572 109.03 184.703 104.045C184.695 104.021 184.682 103.998 184.672 103.975C184.102 103.491 183.593 103.096 183.179 102.835C178.138 99.6471 158.519 98.9861 158.519 98.9861Z" fill="#0E609C" fill-opacity="0.301961"/>
<path d="M316.584 82.812C315.138 82.4598 284.861 112.716 284.861 112.716C284.861 112.716 266.811 86.5636 262.335 85.6659C254.331 84.0577 243.204 83.5244 243.204 83.5244L238.198 85.0481L232.7 83.2197C232.7 83.2197 222.549 75.8378 217.807 73.0683C213.065 70.3009 191.463 63.3062 191.463 63.3062L170.526 25.8965C170.526 25.8965 162.069 28.8555 161.723 30.4945C161.375 32.1356 174.251 77.5036 175.004 78.5352C176.606 80.7261 207.248 95.4383 207.301 96.0766C207.355 96.717 196.95 167.503 198.282 173.838C198.282 173.838 209.54 180.001 240.224 181.329C240.224 181.329 265.032 181.14 268.372 178.739C271.712 176.338 265.009 121.115 265.401 120.139C265.792 119.163 280.245 138.914 282.45 139.25C289.171 140.279 321.091 91.6372 321.676 90.1464C322.258 88.6557 318.027 83.162 316.584 82.812Z" fill="#FDB879"/>
<path d="M238.198 85.0481L232.7 83.2196C232.7 83.2196 229.5 80.8928 225.856 78.3622C221.923 77.8927 217.988 78.2016 217.778 83.512C217.558 89.0674 222.462 92.5699 227.075 94.4746C234.043 97.3512 242.551 97.6909 249.988 96.8179C253.106 96.4534 256.74 95.6812 258.896 93.198C260.69 91.1327 260.947 87.8876 260.125 85.2602C252.431 83.967 243.204 83.5244 243.204 83.5244L238.198 85.0481Z" fill="#FDB879" fill-opacity="0.301961"/>
<path d="M265.401 120.139C265.613 119.612 269.941 125.149 274.218 130.4C275.373 129.364 276.242 127.888 276.234 126.44C276.223 124.474 274.533 122.853 273.201 121.618C271.176 119.74 269.051 117.854 266.515 116.701C264.713 115.883 262.312 115.265 260.663 116.785C259.573 117.788 259.209 119.423 258.999 120.829C258.56 123.755 258.721 126.881 258.772 129.825C258.882 136.099 259.277 142.524 257.753 148.676C256.475 153.845 253.841 158.587 250.301 162.548C246.698 166.58 242.882 169.444 237.374 169.932C232.12 170.396 226.515 169.928 221.274 169.37C213.028 168.493 204.468 165.676 199.118 159.291C198.344 166.732 197.953 172.267 198.282 173.838C198.282 173.838 209.54 179.999 240.224 181.329C240.224 181.329 265.032 181.14 268.372 178.739C271.712 176.338 265.009 121.115 265.401 120.139Z" fill="#FDB879" fill-opacity="0.301961"/>
<path d="M206.7 90.5213C205.716 89.2426 204.361 88.3489 203.01 87.4923C200.531 85.9151 197.879 84.6343 195.254 83.3268C192.628 82.0213 190.091 80.6314 187.604 79.0789C185.743 77.9134 183.694 76.8427 182.234 75.1584C178.701 71.0896 177.214 64.2781 171.14 63.1847C170.884 63.1394 170.598 63.0921 170.304 63.0488C172.692 71.384 174.718 78.144 175.004 78.5353C176.555 80.6561 205.269 94.485 207.196 95.9696C209.311 95.3251 207.34 91.3531 206.7 90.5213Z" fill="#FDB879" fill-opacity="0.301961"/>
<path d="M164.085 99.295L158.519 99.0829L152.952 99.295C152.952 99.295 145.113 102.106 146.811 107.161C148.512 112.214 150.674 121.774 158.515 121.78C158.517 121.78 158.517 121.78 158.519 121.78H158.521C166.362 121.774 168.524 112.214 170.225 107.161C171.926 102.106 164.085 99.295 164.085 99.295Z" fill="#FFFFFB"/>
<path d="M243.968 75.0327L232.457 74.798L232.247 85.0008C232.181 88.1779 234.706 90.8074 237.885 90.8733C241.064 90.9392 243.694 88.4147 243.758 85.2355L243.968 75.0327Z" fill="#BF797E"/>
<path d="M234.66 81.7021C237.974 81.7021 241.062 82.4022 243.791 83.6768L243.968 75.0327L232.457 74.798L232.311 81.8915C233.085 81.7721 233.87 81.7021 234.66 81.7021Z" fill="#BF797E" fill-opacity="0.301961"/>
<path d="M221.719 58.7822C222.537 61.9883 221.392 65.8243 218.931 66.4503C216.473 67.0783 213.629 64.2594 212.811 61.0534C211.994 57.8495 213.512 55.4692 215.97 54.8432C218.431 54.2152 220.902 55.5762 221.719 58.7822Z" fill="#BF797E"/>
<path d="M255.352 59.4721C254.403 62.641 255.391 66.5203 257.823 67.2493C260.255 67.9761 263.212 65.2767 264.161 62.1077C265.108 58.9388 263.69 56.4987 261.258 55.7719C258.826 55.043 256.3 56.3031 255.352 59.4721Z" fill="#BF797E"/>
<path d="M221.719 58.7822C220.902 55.5762 218.431 54.2152 215.97 54.8432C215.404 54.9873 214.897 55.2344 214.446 55.5536C214.566 55.603 214.687 55.6504 214.801 55.7059C216.349 56.4822 217.216 57.7589 217.873 59.2991C218.812 61.5003 218.735 64.2018 218.375 66.5286C218.562 66.5203 218.748 66.4977 218.931 66.4503C221.392 65.8243 222.537 61.9883 221.719 58.7822Z" fill="#BF797E" fill-opacity="0.301961"/>
<path d="M257.576 63.3535C257.648 61.6609 258.052 60.2772 259.131 58.9635C260.136 57.7424 261.686 57.1432 263.216 56.9744C262.691 56.4267 262.034 56.0046 261.258 55.7719C258.826 55.043 256.3 56.3031 255.352 59.4721C254.403 62.641 255.391 66.5203 257.823 67.2493C257.914 67.276 258.007 67.2884 258.097 67.3069C257.796 66.0035 257.523 64.6775 257.576 63.3535Z" fill="#BF797E" fill-opacity="0.301961"/>
<path d="M257.58 58.0493C257.298 71.7813 259.328 80.4316 238.107 79.9972C216.886 79.5627 219.271 71.001 219.553 57.2689C219.835 43.5388 228.627 30.0538 239.129 30.27C249.628 30.4842 257.86 44.3172 257.58 58.0493Z" fill="#BF797E"/>
<path d="M222.642 47.5108C222.623 47.171 222.936 46.9157 223.263 46.9754C225.423 47.3769 227.011 46.3968 227.036 44.0206C227.042 43.5511 227.536 43.339 227.9 43.6088C228.456 43.7282 229.014 43.8456 229.57 43.965C229.75 43.7859 230.11 43.7076 230.303 43.9259C231.751 45.5814 232.624 47.8649 234.817 48.6206C238.039 49.7325 241.112 48.6041 243.543 46.5471C243.725 46.3947 244.003 46.4792 244.169 46.6006C245.415 47.5005 246.945 48.0729 248.423 47.3975C248.636 47.3007 248.895 47.4449 249.017 47.6117C250.095 49.0983 251.747 51.1801 253.905 50.342C254.232 50.2164 254.547 50.4985 254.58 50.8094C254.838 53.1939 254.996 55.951 257.58 56.892C257.395 43.5511 249.334 30.4779 239.129 30.27C229.344 30.0682 221.046 41.7618 219.73 54.4643C222.215 54.1616 222.749 49.576 222.642 47.5108Z" fill="#BF797E" fill-opacity="0.301961"/>
<path d="M232.813 57.5818C232.778 59.3176 231.868 60.7076 230.783 60.6849C229.696 60.6623 228.846 59.2374 228.881 57.5015C228.916 55.7657 229.826 54.3779 230.911 54.4005C231.998 54.4211 232.848 55.846 232.813 57.5818Z" fill="#52210E"/>
<path d="M248.251 57.8989C248.216 59.6347 247.305 61.0226 246.218 61.002C245.133 60.9793 244.281 59.5544 244.318 57.8186C244.353 56.0828 245.263 54.695 246.348 54.7156C247.433 54.7382 248.286 56.1631 248.251 57.8989Z" fill="#52210E"/>
<path d="M242.623 63.4688C242.592 64.9616 240.722 64.9328 238.418 64.8854C236.112 64.8381 234.245 64.7907 234.275 63.2979C234.306 61.805 236.223 59.435 238.53 59.4824C240.834 59.5297 242.652 61.978 242.623 63.4688Z" fill="#A86267"/>
<path d="M229.194 61.9944L227.439 63.6767" stroke="#F2444D" stroke-opacity="0.501961" stroke-width="0.755687" stroke-miterlimit="10" stroke-linecap="round"/>
<path d="M228.08 61.488L225.339 64.1174" stroke="#F2444D" stroke-opacity="0.501961" stroke-width="0.755687" stroke-miterlimit="10" stroke-linecap="round"/>
<path d="M225.835 61.9245L224.081 63.6088" stroke="#F2444D" stroke-opacity="0.501961" stroke-width="0.755687" stroke-miterlimit="10" stroke-linecap="round"/>
<path d="M247.754 62.3754L249.437 64.1277" stroke="#F2444D" stroke-opacity="0.501961" stroke-width="0.755687" stroke-miterlimit="10" stroke-linecap="round"/>
<path d="M248.887 61.9142L251.518 64.6549" stroke="#F2444D" stroke-opacity="0.501961" stroke-width="0.755687" stroke-miterlimit="10" stroke-linecap="round"/>
<path d="M251.113 62.4434L252.795 64.1977" stroke="#F2444D" stroke-opacity="0.501961" stroke-width="0.755687" stroke-miterlimit="10" stroke-linecap="round"/>
<path d="M244.604 68.8389C243.181 69.6543 240.889 70.1526 238.307 70.099C235.725 70.0455 233.456 69.4566 232.068 68.5815" stroke="#52210E" stroke-width="1.61845" stroke-miterlimit="10" stroke-linecap="round"/>
<path d="M257.475 54.6023C257.475 54.6023 262.331 52.5061 261.153 47.3563C261.153 47.3563 264.398 45.357 262.971 42.0521C261.544 38.7473 258.89 39.6903 258.89 39.6903C258.89 39.6903 260.261 35.3045 257.405 32.2549C254.547 29.2054 250.864 31.7649 249.844 32.883C249.844 32.883 252.34 27.1669 247.767 25.5073C243.193 23.8456 242.329 30.8774 242.329 30.8774C242.329 30.8774 241.797 23.0343 235.383 23.1167C228.967 23.199 229.544 30.6859 230.073 32.1932C229.101 31.0339 223.696 28.5733 220.716 31.5034C217.739 34.4314 218.929 38.8708 218.929 38.8708C218.929 38.8708 216.316 37.8207 214.753 41.0637C213.192 44.3068 216.353 46.4359 216.353 46.4359C214.965 51.5342 219.781 53.9825 219.781 53.9825C219.781 53.9825 221.359 50.4697 221.429 47.0825C221.429 47.0825 225.36 46.3247 225.596 41.7432C225.596 41.7432 228.123 43.5449 229.313 41.0781C229.313 41.0781 234.38 50.0105 243.793 44.5786C243.793 44.5786 245.473 48.1738 249.426 46.333C249.426 46.333 251.463 51.0009 255.027 49.1519C255.027 49.1519 255.148 53.9166 257.475 54.6023Z" fill="#1A1A1A"/>
<path d="M262.971 42.0521C262.839 41.7474 262.695 41.49 262.545 41.2532C262.592 42.0747 262.483 42.8943 262.104 43.6705C261.406 45.0996 259.67 46.2094 258.295 45.4105C257.776 46.6809 256.796 47.7784 255.231 47.4552C253.693 47.136 253.493 45.8305 253.341 44.5539C251.642 45.5793 250.211 46.4235 248.164 45.2993C245.687 43.9382 245.201 42.0562 244.933 39.7315C243.125 42.1283 240.72 43.5717 237.467 43.304C234.304 43.0466 231.992 41.7041 231.063 38.9182C230.264 40.1763 229.583 41.2511 227.695 40.9299C226.465 40.7199 225.512 40.0157 224.954 39.0396C224.003 41.3705 221.95 44.1936 220.319 42.7831C220.292 45.046 220.455 47.5931 218.243 48.81C217.543 49.1972 216.839 49.296 216.186 49.1889C216.715 52.4155 219.781 53.9825 219.781 53.9825C219.781 53.9825 221.359 50.4697 221.429 47.0825C221.429 47.0825 225.36 46.3247 225.596 41.7432C225.596 41.7432 228.123 43.5449 229.313 41.0781C229.313 41.0781 234.38 50.0105 243.793 44.5786C243.793 44.5786 245.473 48.1738 249.426 46.333C249.426 46.333 251.463 51.0009 255.027 49.1519C255.027 49.1519 255.148 53.9166 257.475 54.6023C257.475 54.6023 262.331 52.5061 261.153 47.3563C261.153 47.3563 264.4 45.3569 262.971 42.0521Z" fill="#1A1A1A" fill-opacity="0.301961"/>
<path d="M226.99 49.1066C226.99 49.1066 229.995 45.8058 234.07 48.3921" stroke="#1A1A1A" stroke-width="1.61845" stroke-miterlimit="10" stroke-linecap="round"/>
<path d="M250.483 49.5884C250.483 49.5884 247.616 46.1683 243.44 48.5836" stroke="#1A1A1A" stroke-width="1.61845" stroke-miterlimit="10" stroke-linecap="round"/>
<path d="M117.235 316.006C117.235 316.006 118.361 339.237 117.235 340.674C116.108 342.112 108.706 341.393 108.706 341.393L104.427 316.027L117.235 316.006Z" fill="#ED6E46"/>
<path d="M108.506 328.237C111.455 327.97 114.747 327.675 117.634 326.882C117.488 321.232 117.235 316.006 117.235 316.006L104.427 316.027L106.513 328.39C107.178 328.347 107.843 328.297 108.506 328.237Z" fill="#ED6E46" fill-opacity="0.301961"/>
<path d="M29.6798 316.006C29.6798 316.006 28.5534 339.237 29.6798 340.674C30.8061 342.112 38.2085 341.393 38.2085 341.393L42.4894 316.027L29.6798 316.006Z" fill="#ED6E46"/>
<path d="M40.3603 328.641L42.4894 316.027L29.6798 316.006C29.6798 316.006 29.3668 322.474 29.2371 328.795C32.927 328.88 36.6601 328.781 40.3603 328.641Z" fill="#ED6E46" fill-opacity="0.301961"/>
<path d="M106.111 190.398C106.111 190.398 117.416 253.225 117.146 257.53C116.876 261.836 118.493 316.198 118.493 316.198L104.767 317.814C104.767 317.814 95.6161 270.179 96.1556 262.373C96.1556 262.373 79.1577 217.162 77.2943 204.513L70.5878 203.706C70.5878 203.706 59.6416 245.958 51.6585 256.184C51.6585 256.184 49.0579 283.096 43.4057 317.814H28.8747C28.8747 317.814 29.4121 260.221 30.2192 252.685C31.0264 245.149 43.4057 174.102 43.4057 174.102L106.111 190.398Z" fill="#0E609C"/>
<path d="M52.5522 190.515C55.0828 191.623 60.2367 193.231 62.4482 190.702C63.974 188.958 63.5683 185.742 64.2993 183.625C64.3961 183.349 64.6082 183.176 64.9129 183.224C68.1828 183.726 71.2508 184.89 74.3971 185.87C77.5187 186.844 80.3397 186.994 83.5621 187.229C84.4846 187.297 86.2596 187.305 86.9761 188.011C87.7874 188.812 87.4476 190.896 87.32 191.903C87.1305 193.396 86.4922 195.366 87.3715 196.756C88.0345 197.802 89.3544 197.957 90.4642 198.076C93.0484 198.356 95.6778 198.5 98.2744 198.603C101.336 198.725 104.472 198.692 107.501 198.183C106.655 193.418 106.111 190.398 106.111 190.398L43.4057 174.102C43.4057 174.102 42.7859 177.66 41.8161 183.261C45.1477 186.053 48.5658 188.769 52.5522 190.515Z" fill="#0E609C" fill-opacity="0.301961"/>
<path d="M90.178 88.5732L95.2928 87.4696L97.6834 184.187C97.6834 184.187 73.2873 188.524 56.9072 174.794L84.8511 86.2959L90.178 88.5732Z" fill="#CDD8DD"/>
<path d="M95.3999 91.8267C94.0676 104.115 90.6845 116.196 86.7743 127.869C85.0962 132.875 83.6919 137.994 81.8346 142.933C80.42 146.695 78.5606 151.176 75.0087 153.422C70.7999 156.085 67.5589 152.109 65.8169 148.573C65.6851 148.303 65.5718 148.023 65.4462 147.75L56.9072 174.794C73.2873 188.524 97.6834 184.187 97.6834 184.187L95.3999 91.8267Z" fill="#CDD8DD" fill-opacity="0.301961"/>
<path d="M95.2928 87.4697C95.2928 87.4697 112.173 82.0831 116.732 81.8463C121.293 81.6115 141.725 78.179 141.725 78.179C141.725 78.179 174.405 50.5336 175.818 51.0052C177.228 51.4746 180.99 57.2998 180.284 58.7371C179.578 60.1743 150.895 96.1467 148.778 96.853C146.663 97.5572 118.035 105.954 117.566 106.895C117.097 107.836 117.636 191.73 114.109 193.847C110.582 195.961 84.8738 194.232 84.5093 192.821C84.1449 191.411 95.2928 87.4697 95.2928 87.4697Z" fill="#F2444D"/>
<path d="M113.751 109.712C112.49 112.059 112.251 114.985 111.986 117.586C111.35 123.835 111.626 130.142 111.947 136.402C112.873 154.481 113.536 174.814 98.2517 187.57C94.9736 190.307 91.0613 192.424 86.9082 193.591C93.4334 194.73 111.218 195.58 114.109 193.847C117.636 191.73 117.097 107.836 117.566 106.895C117.585 106.858 117.667 106.802 117.776 106.741C116.16 107.19 114.379 108.547 113.751 109.712Z" fill="#F2444D" fill-opacity="0.301961"/>
<path d="M84.8511 86.296C84.8511 86.296 75.3463 78.0987 70.8493 74.9462C66.3522 71.7958 45.4051 63.0364 45.4051 63.0364L27.6392 24.0166C27.6392 24.0166 18.9684 26.2651 18.4865 27.8712C18.0026 29.4773 27.075 75.7555 27.7401 76.8468C29.1547 79.1633 58.4721 96.3629 58.4721 97.0053C58.4721 97.6478 34.7163 167.025 35.5194 173.447C35.5194 173.447 49.1712 187.097 61.0542 188.221L84.8511 86.296Z" fill="#F2444D"/>
<path d="M59.7487 91.3551C58.993 90.2824 57.8976 89.4031 56.9134 88.5465C54.3704 86.3392 51.6647 84.3192 49.0744 82.1695C44.3241 78.2284 39.4666 74.3141 33.31 72.916C31.255 72.4506 28.3928 71.9955 26.8691 73.3134C27.3221 75.3786 27.6351 76.6738 27.7401 76.8468C29.1135 79.0974 56.7878 95.3724 58.3938 96.9044C60.8977 96.229 60.9203 93.0148 59.7487 91.3551Z" fill="#F2444D" fill-opacity="0.301961"/>
<path d="M67.5589 132.207C65.3495 136.812 65.3845 142.093 65.1477 147.084C64.8017 154.337 63.2801 161.033 59.0651 167.07C55.4061 172.308 50.1451 175.135 43.8937 172.49C40.9677 171.252 38.5709 169.063 36.7363 166.415C35.8612 169.942 35.3958 172.452 35.5194 173.447C35.5194 173.447 49.1712 187.097 61.0542 188.221L75.1116 128.005C72.3957 126.839 69.1382 128.921 67.5589 132.207Z" fill="#F2444D" fill-opacity="0.301961"/>
<path d="M86.239 76.5831L97.7163 78.8358L95.7211 89.0077C95.0992 92.1767 92.025 94.2419 88.8561 93.6201C85.6871 92.9982 83.6218 89.9261 84.2437 86.7571L86.239 76.5831Z" fill="#F68E6B"/>
<path d="M96.1391 86.8724L97.7164 78.8358L86.239 76.5831L85.0385 82.7069C89.2288 82.7954 93.1658 84.2985 96.1391 86.8724Z" fill="#F68E6B" fill-opacity="0.301961"/>
<path d="M109.225 66.8931C107.919 69.504 108.187 73.0271 110.19 74.0279C112.194 75.0306 115.173 73.1342 116.481 70.5233C117.786 67.9123 116.924 65.5773 114.92 64.5745C112.917 63.5718 110.53 64.2822 109.225 66.8931Z" fill="#F68E6B"/>
<path d="M115.322 64.8258C115.19 64.7393 115.064 64.6466 114.92 64.5745C112.917 63.5718 110.53 64.2822 109.225 66.8931C107.919 69.504 108.187 73.0271 110.19 74.0279C110.709 74.2894 111.296 74.3491 111.899 74.2585C109.805 70.8836 110.829 65.6288 115.322 64.8258Z" fill="#F68E6B" fill-opacity="0.301961"/>
<path d="M80.0947 61.1791C80.3191 64.0886 78.7398 67.2493 76.5057 67.4202C74.2715 67.5911 72.2289 64.7084 72.0065 61.7989C71.7821 58.8873 73.4644 57.0506 75.6985 56.8797C77.9306 56.7088 79.8723 58.2675 80.0947 61.1791Z" fill="#F68E6B"/>
<path d="M80.0947 61.1791C79.8723 58.2675 77.9305 56.7088 75.6985 56.8797C74.6195 56.9621 73.6744 57.4418 73.0072 58.2346C76.4789 59.818 77.5105 64.3995 75.8529 67.377C76.0671 67.4161 76.2853 67.4367 76.5056 67.4202C78.7398 67.2493 80.3191 64.0886 80.0947 61.1791Z" fill="#F68E6B" fill-opacity="0.301961"/>
<path d="M78.4412 59.5339C76.1083 71.4272 72.7334 78.5063 91.1149 82.1118C109.494 85.7173 109.043 77.8886 111.376 65.9953C113.709 54.102 108.658 40.827 99.5634 39.0418C90.4684 37.2586 80.7742 47.6405 78.4412 59.5339Z" fill="#F68E6B"/>
<path d="M87.2479 52.1644C87.3838 51.8143 87.8101 51.839 88.0592 52.0099C91.4835 54.3861 95.4411 54.2111 99.3945 53.7417C101.67 53.4719 104.194 53.1321 106.187 54.5529C108.49 56.1981 109.914 59.6224 111.154 62.0604C111.376 62.499 111.564 62.9499 111.764 63.3947C112.954 52.2385 107.999 40.6973 99.5634 39.0418C90.8184 37.3266 81.5216 46.8622 78.7459 58.1728C82.5244 58.074 85.8251 55.809 87.2479 52.1644Z" fill="#F68E6B" fill-opacity="0.301961"/>
<path d="M100.158 62.3754C99.864 63.8786 100.387 65.2479 101.328 65.4332C102.269 65.6165 103.27 64.5478 103.566 63.0447C103.861 61.5415 103.338 60.1722 102.397 59.989C101.456 59.8036 100.455 60.8723 100.158 62.3754Z" fill="#52210E"/>
<path d="M86.7887 59.7542C86.4943 61.2574 87.0173 62.6246 87.9583 62.8099C88.8993 62.9932 89.9 61.9245 90.1945 60.4214C90.491 58.9182 89.9659 57.551 89.027 57.3657C88.086 57.1804 87.0832 58.2511 86.7887 59.7542Z" fill="#52210E"/>
<path d="M92.7478 66.0345C92.4945 67.3255 93.1472 67.4635 93.9565 67.622C94.7657 67.7806 95.4225 67.9 95.6758 66.609C95.9291 65.3158 95.684 63.1023 94.8748 62.9438C94.0656 62.7852 93.001 64.7414 92.7478 66.0345Z" fill="#ED6E46"/>
<path d="M87.598 70.4801C87.2623 72.1932 89.1382 75.8625 92.2248 76.4679C95.3113 77.0733 98.4329 74.3841 98.7686 72.6709C98.82 72.4094 98.8097 72.1912 98.7377 71.9997C98.3279 70.9001 96.0773 70.7436 93.4479 70.2289C90.8184 69.712 88.6749 69.0078 87.8821 69.8706C87.7442 70.0188 87.6495 70.2185 87.598 70.4801Z" fill="#52210E"/>
<path d="M87.8821 69.8706C88.9549 70.8404 90.8369 71.699 93.0731 72.1376C95.3113 72.5762 97.3787 72.4938 98.7377 71.9997C98.3279 70.9001 96.0773 70.7436 93.4479 70.2289C90.8184 69.712 88.6749 69.0078 87.8821 69.8706Z" fill="white"/>
<path d="M102.454 66.8601L103.649 68.6392" stroke="#F2444D" stroke-opacity="0.501961" stroke-width="0.667146" stroke-miterlimit="10" stroke-linecap="round"/>
<path d="M103.509 66.6316L105.378 69.4134" stroke="#F2444D" stroke-opacity="0.501961" stroke-width="0.667146" stroke-miterlimit="10" stroke-linecap="round"/>
<path d="M105.362 67.4305L106.558 69.2096" stroke="#F2444D" stroke-opacity="0.501961" stroke-width="0.667146" stroke-miterlimit="10" stroke-linecap="round"/>
<path d="M86.3769 63.7056L84.5979 64.9019" stroke="#F2444D" stroke-opacity="0.501961" stroke-width="0.667146" stroke-miterlimit="10" stroke-linecap="round"/>
<path d="M85.4874 63.0962L82.7035 64.9659" stroke="#F2444D" stroke-opacity="0.501961" stroke-width="0.667146" stroke-miterlimit="10" stroke-linecap="round"/>
<path d="M83.4695 63.1353L81.6884 64.3316" stroke="#F2444D" stroke-opacity="0.501961" stroke-width="0.667146" stroke-miterlimit="10" stroke-linecap="round"/>
<path d="M87.2129 46.8828C87.2129 46.8828 90.9255 55.2881 99.5407 52.1932C113.131 47.3132 111.638 64.449 111.638 64.449C111.638 64.449 120.848 59.1591 119.969 46.3207L118.348 47.2555C118.348 47.2555 121.077 37.4398 112.917 31.7341C112.917 31.7341 114.07 36.7768 111.696 38.4097C109.323 40.0425 95.9332 24.8485 88.6213 35.877C88.6213 35.877 72.4636 34.5674 78.6986 57.9216C78.6986 57.9216 85.3824 53.0354 87.2129 46.8828Z" fill="#695950"/>
<path d="M82.4646 50.2762C80.9286 50.478 79.306 50.1362 78.017 49.2673C77.7431 49.084 77.5043 48.8699 77.2695 48.6537C77.2943 51.2049 77.7205 54.2585 78.6986 57.9216C78.6986 57.9216 85.2712 53.1116 87.1635 47.027C85.4771 48.3057 84.7955 49.9674 82.4646 50.2762Z" fill="#695950" fill-opacity="0.301961"/>
<path d="M112.735 53.3442C112.326 51.9461 112.264 50.4635 111.045 49.4546C109.9 48.5053 108.247 48.2686 106.818 48.1862C104.182 48.0338 101.727 48.7813 99.1454 49.1066C95.2516 49.5967 90.351 49.8829 87.2891 47.0434C87.8513 48.178 91.6256 55.0368 99.5407 52.1932C113.131 47.3131 111.638 64.4489 111.638 64.4489C111.638 64.4489 116.106 61.8771 118.521 55.9757C116.067 57.6724 113.487 55.9037 112.735 53.3442Z" fill="#695950" fill-opacity="0.301961"/>
<path d="M106.593 58.317C106.416 57.0198 105.321 55.8625 103.939 55.5434C103.255 55.4054 102.541 55.4157 101.907 55.6402C101.583 55.7225 101.297 55.9037 101.011 56.0479C100.747 56.2538 100.484 56.435 100.259 56.6697C100.916 56.6244 101.507 56.5585 102.071 56.54C102.636 56.5173 103.165 56.5688 103.671 56.682C104.691 56.9044 105.601 57.4913 106.593 58.317Z" fill="#695950"/>
<path d="M85.7716 54.2338C87.0029 53.8426 88.0675 53.6449 89.0949 53.824C89.6056 53.9084 90.1163 54.0629 90.631 54.2956C91.1458 54.5262 91.6688 54.8103 92.2577 55.1007C92.1404 54.798 91.9633 54.5303 91.7985 54.24C91.5864 53.999 91.3888 53.7231 91.1211 53.5234C90.6207 53.0766 89.9618 52.7986 89.2761 52.6668C87.876 52.4403 86.4264 53.0972 85.7716 54.2338Z" fill="#695950"/>
<path d="M94.9119 91.0277C94.9119 91.0277 102.314 117.304 101.569 118.515C100.821 119.727 96.2565 121.541 96.2565 121.541L99.3307 127.929L84.5011 190.398L94.9119 91.0277Z" fill="#EF6470"/>
<path d="M84.2314 88.944C84.2314 88.944 69.1485 114.127 69.1485 115.342C69.1485 116.556 72.6592 118.852 72.6592 118.852L66.7167 124.119L61.0542 188.221L84.2314 88.944Z" fill="#EF6470"/>
<path d="M183.546 49.3332C183.163 48.9111 182.703 48.6269 182.228 48.5342C181.892 48.0751 181.295 47.8053 180.632 48.1101C178.995 48.8575 177.539 49.9015 176.273 51.1822C175.297 52.1685 174.088 53.2496 174.698 54.7404C175.175 55.912 176.083 57.3513 177.222 57.9567C178.635 58.7062 179.425 57.7775 180.132 56.6635C181.132 55.0883 182.572 53.9847 183.749 52.5927C184.618 51.5694 184.423 50.2989 183.546 49.3332Z" fill="#F68E6B"/>
<path d="M198.958 46.298C200.142 45.8903 199.631 44.0021 198.437 44.4119C196.923 44.9328 195.299 44.974 193.792 45.5052C193.199 45.7153 192.571 45.9459 191.951 46.1992C191.473 46.1847 191.28 45.6288 191.545 45.1676C193.779 43.6891 196.133 42.3898 198.593 41.3253C199.749 40.8249 198.754 39.1385 197.611 39.6327C195.264 40.6478 193.017 41.8771 190.876 43.2711C190.859 43.1826 190.281 42.5896 190.709 42.1263C192.19 40.724 193.682 39.3383 195.319 38.0987C196.312 37.3471 195.34 35.6463 194.337 36.4061C192.266 37.9751 190.404 39.7418 188.529 41.5065C187.489 42.116 185.883 42.5669 184.791 41.9883C183.924 41.5291 183.743 40.6684 183.805 39.748C183.92 39.2127 184.011 38.6773 184.075 38.1399C184.12 37.9463 184.167 37.7569 184.209 37.5798C184.277 37.2915 184.256 37.0341 184.186 36.8056C184.194 34.9771 181.322 35.0203 181.254 36.8879C181.243 37.1618 181.213 37.446 181.167 37.7383C181.11 38.0019 181.056 38.2716 181.007 38.5476C179.843 43.5326 175.196 50.5891 180.809 54.1637C183.447 55.8419 185.747 53.8137 188.16 52.7821C189.809 52.0779 190.971 51.4066 191.945 50.3359C193.606 50.3132 195.326 50.5768 196.804 50.9371C198.027 51.2357 198.532 49.3455 197.306 49.0469C196.046 48.7401 194.667 48.5053 193.279 48.4189C193.283 48.3797 193.042 48.0812 193.052 47.9556C193.059 47.8856 193.314 47.8094 193.31 47.7435C193.812 47.5499 194.308 47.3811 194.766 47.2452C196.143 46.8334 197.591 46.7675 198.958 46.298Z" fill="#F68E6B"/>
<path d="M21.0275 18.317C21.6123 18.1646 22.1847 18.179 22.6603 18.3705C23.2245 18.1605 23.9102 18.2655 24.322 18.9183C25.3433 20.5305 26.0331 22.3013 26.4161 24.171C26.7106 25.6103 27.1574 27.272 25.7531 28.2418C24.6494 29.0037 23.0104 29.7573 21.6493 29.6358C19.9609 29.4835 19.7961 28.2007 19.8126 26.8025C19.8394 24.8258 19.2011 23.0138 18.9581 21.0927C18.781 19.6822 19.6891 18.667 21.0275 18.317Z" fill="#F68E6B"/>
<path d="M9.1012 6.69961C8.2858 5.65153 9.83218 4.26987 10.6558 5.32619C11.6977 6.66666 13.1164 7.64267 14.148 8.98726C14.5516 9.51645 14.9758 10.0848 15.3794 10.6675C15.8118 10.9331 16.306 10.5501 16.3369 9.98798C15.2085 7.38117 13.8721 4.86495 12.3031 2.49493C11.568 1.38302 13.4274 0.460554 14.1563 1.56217C15.6512 3.821 16.934 6.21366 18.0294 8.69075C18.0953 8.6228 18.9519 8.4313 18.8407 7.77239C18.3383 5.67006 17.8153 3.57596 17.0781 1.52511C16.6313 0.283473 18.4783 -0.663716 18.9293 0.592331C19.862 3.18473 20.4921 5.83067 21.1345 8.48484C21.7049 9.62764 22.8704 10.9578 24.1738 11.0752C25.2116 11.1699 25.8684 10.511 26.3461 9.65647C26.5541 9.11493 26.7847 8.5878 27.038 8.07302C27.11 7.87535 27.178 7.67974 27.2439 7.49854C27.351 7.20409 27.5177 6.98788 27.7134 6.82521C28.7656 5.19647 31.29 6.89728 30.2687 8.59603C30.1184 8.84312 29.9825 9.11493 29.8528 9.40114C29.7519 9.66676 29.6427 9.93856 29.5274 10.2104C27.6742 15.3128 27.7134 24.2678 20.661 24.1916C17.3458 24.1546 16.481 21.0227 14.9346 18.7083C13.8783 17.1289 13.2338 15.8605 12.9888 14.345C11.5289 13.3649 9.8466 12.601 8.32699 12.0656C7.06888 11.6229 7.71543 9.65235 8.9756 10.0971C10.2728 10.5542 11.6339 11.1452 12.9167 11.87C12.9332 11.8329 13.3203 11.7073 13.3841 11.59C13.4191 11.5261 13.2379 11.3099 13.2791 11.2543C12.9455 10.791 12.6017 10.3524 12.2763 9.96739C11.29 8.804 10.0422 7.9083 9.1012 6.69961Z" fill="#F68E6B"/>
<path d="M120.076 314.876C120.906 316.348 120.999 322.978 120.076 323.992C119.156 325.005 104.33 327.397 103.319 325.74C102.306 324.084 102.03 317.853 103.319 316.9C104.608 315.949 120.076 314.876 120.076 314.876Z" fill="#8EBCD3"/>
<path d="M120.288 318.158C118.064 324.183 109.805 324.642 102.747 323.973C102.891 324.725 103.084 325.357 103.319 325.74C104.33 327.397 119.156 325.005 120.076 323.992C120.739 323.263 120.875 319.639 120.593 317.108C120.515 317.46 120.416 317.81 120.288 318.158Z" fill="#8EBCD3" fill-opacity="0.301961"/>
<path d="M44.5094 316.389C45.0736 317.983 44.0296 324.531 42.9506 325.371C41.8696 326.211 26.8526 326.032 26.1381 324.226C25.4257 322.418 26.2184 316.235 27.6516 315.516C29.0847 314.798 44.5094 316.389 44.5094 316.389Z" fill="#8EBCD3"/>
<path d="M41.7811 322.635C37.912 323.495 33.9771 323.812 30.0133 323.644C28.469 323.578 27.1121 323.281 25.889 322.762C25.9219 323.366 26.0022 323.878 26.1381 324.226C26.8526 326.032 41.8696 326.211 42.9506 325.371C43.5128 324.933 44.0625 322.95 44.3838 320.924C43.731 321.762 42.8497 322.396 41.7811 322.635Z" fill="#8EBCD3" fill-opacity="0.301961"/>
<path d="M28.467 333.167C26.5129 333.167 25.5369 341.601 21.0975 342.134C16.6581 342.668 12.9311 342.223 12.9311 351.544H41.5834C41.5834 351.544 43.2101 336.587 39.3452 334.656L29.1815 333.167H28.467Z" fill="#EF414F"/>
<path d="M13.5488 351.367C13.1555 350.504 12.9311 349.576 12.9311 348.602C12.9311 344.245 17.2223 340.713 22.5182 340.713C27.8142 340.713 32.1074 344.245 32.1074 348.602C32.1074 349.576 31.8809 350.504 31.4876 351.367H13.5488Z" fill="white"/>
<path d="M41.744 349.683H12.9311V353.231H41.744V349.683Z" fill="white"/>
<path d="M118.493 333.167C120.447 333.167 121.423 341.601 125.862 342.134C130.302 342.668 134.028 342.223 134.028 351.544H105.376C105.376 351.544 103.75 336.587 107.614 334.656L117.778 333.167H118.493Z" fill="#EF414F"/>
<path d="M133.411 351.367C133.804 350.504 134.028 349.576 134.028 348.602C134.028 344.245 129.737 340.713 124.441 340.713C119.145 340.713 114.852 344.245 114.852 348.602C114.852 349.576 115.079 350.504 115.472 351.367H133.411Z" fill="white"/>
<path d="M105.216 349.683H134.028V353.231H105.216V349.683Z" fill="white"/>
<path d="M178.363 80.7571C175.921 70.8158 158.581 77.1022 158.517 77.1269C158.456 77.1022 141.116 70.8158 138.676 80.7571C136.228 90.7149 146.014 99.8161 146.014 99.8161C146.014 99.8161 148.529 97.1804 158.517 97.1804C168.508 97.1804 171.022 99.8161 171.022 99.8161C171.022 99.8161 180.809 90.7149 178.363 80.7571Z" fill="black"/>
<path d="M163.539 92.8563H153.499V101.756C153.499 104.527 155.746 106.776 158.517 106.776C161.291 106.776 163.539 104.527 163.539 101.756V92.8563Z" fill="#FFD8A5"/>
<path d="M160.235 98.9985C161.449 99.0788 162.533 99.3548 163.539 99.7542V92.8563H153.499V98.9018C155.731 98.5435 158.355 98.8729 160.235 98.9985Z" fill="#E8BC83" fill-opacity="0.301961"/>
<path d="M143.855 79.085C144.625 81.8648 143.694 85.2294 141.561 85.8203C139.427 86.4113 136.897 84.0063 136.127 81.2245C135.357 78.4447 136.637 76.3444 138.771 75.7534C140.906 75.1625 143.084 76.3053 143.855 79.085Z" fill="#E8BC83"/>
<path d="M173.188 79.085C172.418 81.8648 173.349 85.2294 175.482 85.8203C177.615 86.4113 180.146 84.0063 180.916 81.2245C181.686 78.4447 180.406 76.3444 178.272 75.7534C176.137 75.1625 173.958 76.3053 173.188 79.085Z" fill="#E8BC83"/>
<path d="M175.105 77.8043C175.105 89.782 167.68 97.2874 158.521 97.2874C149.363 97.2874 141.938 89.782 141.938 77.8043C141.938 65.8286 149.363 53.9147 158.521 53.9147C167.68 53.9147 175.105 65.8286 175.105 77.8043Z" fill="#FFD8A5"/>
<path d="M144.824 80.1475C145.356 77.4192 145.267 74.5097 145.953 71.8329C146.041 71.4911 146.375 71.3428 146.694 71.4746C150.715 73.1404 155.155 72.8172 159.421 72.8851C163.494 72.951 167.289 72.9757 171.234 71.9029C171.438 71.8473 171.724 71.907 171.827 72.1171C173.683 75.8646 173.757 80.2072 173.987 84.3048C174.002 84.5663 174.02 84.8464 174.039 85.1161C174.716 82.9211 175.105 80.4811 175.105 77.8043C175.105 65.8286 167.68 53.9147 158.521 53.9147C149.363 53.9147 141.938 65.8286 141.938 77.8043C141.938 80.5655 142.347 83.0735 143.066 85.322C143.859 83.6892 144.468 81.976 144.824 80.1475Z" fill="#FFD8A5" fill-opacity="0.301961"/>
<path d="M153.503 77.8413C153.503 78.5394 152.737 79.1056 151.79 79.1056C150.841 79.1056 150.075 78.5394 150.075 77.8413C150.075 77.1412 150.841 76.575 151.79 76.575C152.737 76.575 153.503 77.1412 153.503 77.8413Z" fill="#52210E"/>
<path d="M166.97 77.8413C166.97 78.5394 166.202 79.1056 165.253 79.1056C164.305 79.1056 163.539 78.5394 163.539 77.8413C163.539 77.1412 164.305 76.575 165.253 76.575C166.202 76.575 166.97 77.1412 166.97 77.8413Z" fill="#52210E"/>
<path d="M160.171 82.5588C160.171 84.0969 159.434 84.1072 158.521 84.1072C157.609 84.1072 156.872 84.0969 156.872 82.5588C156.872 81.0206 157.609 78.5374 158.521 78.5374C159.434 78.5374 160.171 81.0206 160.171 82.5588Z" fill="#E8BC83"/>
<path d="M150.427 81.7515L148.928 83.2506" stroke="#F2444D" stroke-opacity="0.501961" stroke-width="0.65891" stroke-miterlimit="10" stroke-linecap="round"/>
<path d="M149.447 81.3295L147.104 83.6727" stroke="#F2444D" stroke-opacity="0.501961" stroke-width="0.65891" stroke-miterlimit="10" stroke-linecap="round"/>
<path d="M147.497 81.7515L145.998 83.2506" stroke="#F2444D" stroke-opacity="0.501961" stroke-width="0.65891" stroke-miterlimit="10" stroke-linecap="round"/>
<path d="M166.616 81.7515L168.115 83.2506" stroke="#F2444D" stroke-opacity="0.501961" stroke-width="0.65891" stroke-miterlimit="10" stroke-linecap="round"/>
<path d="M167.596 81.3295L169.939 83.6727" stroke="#F2444D" stroke-opacity="0.501961" stroke-width="0.65891" stroke-miterlimit="10" stroke-linecap="round"/>
<path d="M169.546 81.7515L171.045 83.2506" stroke="#F2444D" stroke-opacity="0.501961" stroke-width="0.65891" stroke-miterlimit="10" stroke-linecap="round"/>
<path d="M148.856 76.8324C148.856 76.8324 149.873 77.654 150.965 77.4645" stroke="#52210E" stroke-width="0.352105" stroke-miterlimit="10" stroke-linecap="round"/>
<path d="M148.975 77.8187C148.975 77.8187 150.203 78.2655 151.175 77.7322" stroke="#52210E" stroke-width="0.352105" stroke-miterlimit="10" stroke-linecap="round"/>
<path d="M168.187 76.8324C168.187 76.8324 167.17 77.654 166.078 77.4645" stroke="#52210E" stroke-width="0.352105" stroke-miterlimit="10" stroke-linecap="round"/>
<path d="M168.067 77.8187C168.067 77.8187 166.84 78.2655 165.868 77.7322" stroke="#52210E" stroke-width="0.352105" stroke-miterlimit="10" stroke-linecap="round"/>
<path d="M158.519 88.6557C158.519 88.6557 157.825 87.5047 157.041 87.3544C156.256 87.2062 153.213 87.4429 153.213 87.4429C153.213 87.4429 154.632 88.5672 158.519 88.6557Z" fill="#F2444D" fill-opacity="0.501961"/>
<path d="M158.519 88.6557C158.519 88.6557 159.211 87.5047 159.996 87.3544C160.78 87.2062 163.824 87.4429 163.824 87.4429C163.824 87.4429 162.405 88.5672 158.519 88.6557Z" fill="#F2444D" fill-opacity="0.501961"/>
<path d="M158.519 88.6557H158.517C158.517 88.6557 155.307 88.9234 153.213 87.4429C153.213 87.4429 153.748 90.2145 158.517 90.2145H158.519C163.288 90.2145 163.824 87.4429 163.824 87.4429C161.729 88.9234 158.519 88.6557 158.519 88.6557Z" fill="#F2444D" fill-opacity="0.501961"/>
<path d="M163.984 87.4429C162.759 88.1801 160.772 88.6557 158.519 88.6557C156.267 88.6557 154.278 88.1801 153.052 87.4429" stroke="#52210E" stroke-width="0.706269" stroke-miterlimit="10" stroke-linecap="round"/>
<path d="M158.517 46.3351C133.897 46.3351 134.488 68.2418 134.488 83.7221C134.488 95.3477 142.366 99.5977 146.288 100.992C146.922 101.216 147.435 100.479 147.038 99.9354C139.52 89.6214 144.122 68.9357 144.122 68.9357C144.122 68.9357 149.527 70.1362 158.517 70.1362C167.511 70.1362 172.914 68.9357 172.914 68.9357C172.914 68.9357 177.517 89.6214 169.999 99.9354C169.603 100.479 170.114 101.216 170.748 100.992C174.671 99.5977 182.549 95.3477 182.549 83.7221C182.549 68.2418 183.14 46.3351 158.517 46.3351Z" fill="#1A1A1A"/>
<path d="M147.884 73.2331C148.076 72.7924 148.535 72.393 149.083 72.1109C149.63 71.8206 150.293 71.6538 150.962 71.6208C152.305 71.5611 153.691 72.1088 154.348 72.986C153.713 72.8028 153.168 72.6648 152.626 72.5845C152.103 72.5021 151.578 72.4712 151.055 72.4918C150.013 72.533 149.035 72.7327 147.884 73.2331Z" fill="#1A1A1A"/>
<path d="M169.159 73.2331C168.008 72.7327 167.03 72.5309 165.988 72.4918C165.465 72.4712 164.94 72.5021 164.417 72.5845C163.873 72.6648 163.329 72.8028 162.695 72.986C163.352 72.1088 164.736 71.5611 166.08 71.6208C166.752 71.6538 167.413 71.8206 167.96 72.1109C168.508 72.3909 168.965 72.7924 169.159 73.2331Z" fill="#1A1A1A"/>
<path d="M52.3524 117.736C52.3524 118.521 51.7162 119.159 50.9296 119.159C50.1451 119.159 49.5068 118.521 49.5068 117.736C49.5068 116.95 50.1451 116.313 50.9296 116.313C51.7162 116.313 52.3524 116.95 52.3524 117.736Z" fill="#FFD8A5"/>
<path d="M50.2048 125.824C50.2048 126.611 49.5685 127.247 48.782 127.247C47.9954 127.247 47.3591 126.611 47.3591 125.824C47.3591 125.04 47.9954 124.402 48.782 124.402C49.5685 124.402 50.2048 125.04 50.2048 125.824Z" fill="#FFD8A5"/>
<path d="M51.8788 120.191C51.8788 121.177 51.0799 121.976 50.0936 121.976C49.1073 121.976 48.3084 121.177 48.3084 120.191C48.3084 119.204 49.1073 118.405 50.0936 118.405C51.0799 118.405 51.8788 119.204 51.8788 120.191Z" fill="#FFD8A5"/>
<path d="M50.9296 123.259C50.9296 124.245 50.1307 125.044 49.1444 125.044C48.1581 125.044 47.3591 124.245 47.3591 123.259C47.3591 122.272 48.1581 121.474 49.1444 121.474C50.1307 121.474 50.9296 122.272 50.9296 123.259Z" fill="#FFD8A5"/>
<path d="M163.667 19.7604C164.252 19.6081 164.824 19.6225 165.298 19.814C165.864 19.6039 166.548 19.7089 166.962 20.3617C167.983 21.9739 168.671 23.7448 169.054 25.6144C169.35 27.0537 169.795 28.7154 168.393 29.6853C167.289 30.4492 165.65 31.2007 164.289 31.0793C162.598 30.9289 162.436 29.6441 162.452 28.248C162.477 26.2713 161.839 24.4572 161.598 22.5381C161.421 21.1256 162.329 20.1105 163.667 19.7604Z" fill="#BF797E"/>
<path d="M151.739 8.14303C150.923 7.09495 152.472 5.71329 153.295 6.77167C154.337 8.11008 155.756 9.08609 156.786 10.4307C157.191 10.9599 157.615 11.5282 158.017 12.113C158.451 12.3765 158.946 11.9935 158.974 11.4314C157.848 8.82459 156.512 6.30837 154.943 3.93835C154.208 2.82644 156.065 1.90397 156.794 3.00559C158.291 5.26647 159.574 7.65708 160.669 10.1342C160.735 10.0662 161.589 9.87472 161.478 9.21581C160.976 7.11348 160.453 5.01939 159.718 2.96853C159.271 1.72689 161.118 0.779704 161.569 2.03575C162.5 4.62815 163.132 7.27409 163.774 9.92826C164.344 11.0711 165.51 12.4012 166.811 12.5186C167.849 12.6133 168.506 11.9544 168.986 11.0999C169.194 10.5583 169.424 10.0312 169.678 9.51644C169.75 9.31877 169.818 9.12315 169.883 8.94195C169.991 8.6475 170.157 8.4313 170.353 8.26863C171.403 6.63989 173.93 8.3407 172.908 10.0394C172.758 10.2865 172.622 10.5583 172.492 10.8446C172.391 11.1102 172.28 11.382 172.165 11.6538C170.312 16.7562 170.353 25.7112 163.298 25.635C159.985 25.598 159.119 22.4661 157.572 20.1517C156.518 18.5723 155.873 17.3039 155.628 15.7884C154.166 14.8083 152.486 14.0465 150.964 13.509C149.708 13.0663 150.355 11.0958 151.615 11.5405C152.912 11.9977 154.271 12.5886 155.554 13.3134C155.573 13.2764 155.96 13.1507 156.022 13.0354C156.057 12.9695 155.875 12.7533 155.917 12.6977C155.583 12.2345 155.241 11.7959 154.914 11.4129C153.928 10.2474 152.682 9.35172 151.739 8.14303Z" fill="#BF797E"/>
<path d="M305.421 98.4014C315.892 105.233 282.588 143.631 271.817 137.771C261.046 131.909 292.515 89.9797 305.421 98.4014Z" fill="#F68E6B"/>
<path d="M288.378 121.651C285.491 122.697 283.243 125.763 282.063 128.479C281.038 130.834 280.72 133.931 282.23 135.587C286.346 133.097 290.841 129.17 294.881 124.762C293.631 122.371 291.187 120.631 288.378 121.651Z" fill="#F68E6B" fill-opacity="0.301961"/>
<path d="M349.076 323.714H335.917C332.148 302.322 326.535 262.859 326.535 262.859C319.201 245.134 301.254 162.631 301.254 162.631L314.539 159.062C314.539 159.062 329.607 156.503 340 183.397C350.39 210.29 345.806 262.855 345.806 262.855C353.293 278.247 353.419 306.95 349.076 323.714Z" fill="#FDB879"/>
<path d="M340 183.397C339.606 182.379 339.205 181.418 338.799 180.483C331.963 180.687 325.154 181.922 318.42 183.333C319.919 187.249 320.622 191.361 321.47 195.459C322.444 200.16 323.898 204.527 326.146 208.779C330.132 216.311 336.229 222.855 338.437 231.221C340.539 239.192 339.917 247.564 340.232 255.718C340.296 257.335 340.208 259.145 340.858 260.662C341.721 262.678 344.007 263.753 346.158 263.621C346.041 263.366 345.928 263.104 345.806 262.855C345.806 262.855 350.39 210.29 340 183.397Z" fill="#FDB879" fill-opacity="0.301961"/>
<path d="M349.076 323.714C347.038 331.583 347.655 336.814 340.304 336.814C338.781 336.814 337.288 331.497 335.917 323.714H349.076Z" fill="#F68E6B"/>
<path d="M331.912 150.391C331.912 150.391 362.919 168.421 376.672 209.067C376.672 209.067 396.24 193.818 407.736 185.303C409.714 187.92 411.706 190.527 413.758 193.087C414.492 193.999 415.255 194.895 416.026 195.788C406.296 210.727 384.291 242.507 375.797 242.991C365.059 243.602 316.118 193.408 307.433 164.682L331.912 150.391Z" fill="#FDB879"/>
<path d="M413.758 193.087C411.706 190.527 409.714 187.92 407.736 185.303C407.326 185.606 406.906 185.919 406.48 186.238C408.399 189.141 409.69 192.504 409.336 195.827C409.06 198.407 407.696 199.989 405.872 201.716C402.991 204.443 400.226 207.307 397.374 210.066C391.638 215.617 385.637 220.915 379.967 226.528C377.152 229.314 373.969 232.376 373.098 236.396C372.638 238.508 373.182 241.36 374.776 242.915C375.146 242.979 375.488 243.007 375.797 242.991C384.291 242.507 406.296 210.727 416.026 195.788C415.255 194.895 414.492 193.999 413.758 193.087Z" fill="#FDB879" fill-opacity="0.301961"/>
<path d="M418.072 192.613C415.159 189.782 412.233 186.963 409.307 184.146C412.764 181.609 415.247 179.88 415.791 179.729C421.98 178.002 423.531 183.094 420.696 188.359C420.428 188.855 419.495 190.379 418.072 192.613Z" fill="#F68E6B"/>
<path d="M333.789 318.012C333.371 319.375 334.104 326.81 334.838 327.333C335.571 327.856 350.128 328.172 350.443 327.333C350.756 326.495 351.903 318.85 351.176 318.012C350.448 317.176 333.789 318.012 333.789 318.012Z" fill="#FFD8A5"/>
<path d="M351.176 318.012C351.051 317.868 350.448 317.775 349.546 317.718C350.357 322.147 344.734 325.651 340.593 325.305C338.204 325.106 335.431 323.567 333.748 321.479C333.927 324.025 334.382 327.008 334.838 327.333C335.571 327.856 350.128 328.172 350.443 327.333C350.756 326.495 351.903 318.85 351.176 318.012Z" fill="#FFD8A5" fill-opacity="0.301961"/>
<path d="M415.06 198.537C416.336 197.903 421.221 192.251 421.095 191.357C420.971 190.465 411.17 179.696 410.347 180.046C409.523 180.394 403.191 184.83 403.084 185.935C402.979 187.039 415.06 198.537 415.06 198.537Z" fill="#FFD8A5"/>
<path d="M412 181.21C413.532 183.273 414.487 185.684 414.244 188.182C413.931 191.384 411.699 192.895 409.185 192.803C412.14 195.759 415.06 198.537 415.06 198.537C416.336 197.903 421.221 192.251 421.095 191.359C420.998 190.663 415.021 183.965 412 181.21Z" fill="#FFD8A5" fill-opacity="0.301961"/>
<path d="M347.083 332.162C347.083 332.162 350.202 342.414 349.076 349.627H320.129C320.129 349.627 318.657 334.318 331.757 339.324C331.757 339.324 336.172 334.761 334.7 331.227C333.229 327.694 338.381 327.548 338.235 331.227C338.087 334.907 347.083 332.162 347.083 332.162Z" fill="#F2444D"/>
<path d="M345.219 337.149C344.289 339.095 343.871 341.267 342.714 343.108C340.716 346.283 337.119 347.552 333.54 347.881C331.382 348.079 329.202 347.996 327.038 347.937C325.051 347.883 322.996 347.865 321.087 347.239C320.759 347.132 320.442 346.998 320.134 346.852C320.016 348.447 320.129 349.627 320.129 349.627H349.076C349.857 344.624 348.596 338.164 347.75 334.672C346.543 334.828 345.78 335.98 345.219 337.149Z" fill="#F2444D" fill-opacity="0.301961"/>
<path d="M349.076 349.627V353.307H320.08V349.627H349.076Z" fill="white"/>
<path d="M415.684 179.425C415.684 179.425 420.654 169.932 426.519 165.583L447.143 185.896C447.143 185.896 437.448 197.835 431.627 185.077C431.627 185.077 425.281 185.229 423.85 188.779C422.419 192.329 418.645 188.818 421.332 186.3C424.019 183.782 415.684 179.425 415.684 179.425Z" fill="#F2444D"/>
<path d="M437.64 176.538C437.726 177.032 437.776 177.541 437.767 178.066C437.722 181.084 436.003 182.227 433.184 181.842C428.814 181.245 424.653 181.519 421.842 184.92C421.917 185.413 421.779 185.882 421.332 186.3C418.645 188.818 422.419 192.329 423.85 188.779C425.281 185.229 431.627 185.077 431.627 185.077C437.448 197.835 447.142 185.896 447.142 185.896L437.64 176.538Z" fill="#F2444D" fill-opacity="0.301961"/>
<path d="M426.519 165.583L429.101 162.962L449.76 183.308L447.178 185.929L426.519 165.583Z" fill="white"/>
<path d="M331.971 94.5487C321.799 89.1642 307.915 94.0566 307.915 94.0566C307.915 94.0566 300.317 95.8892 297.801 97.5488C295.286 99.2085 284.727 117.254 286.665 122.925C288.601 128.596 292.801 131.108 292.801 131.108C292.801 131.108 296.477 161.939 301.254 164.117C316.944 167.525 331.963 154.882 333.312 151.273C334.663 147.661 333.505 134.147 332.855 125.104C332.229 116.42 338.81 113.919 336.598 106.864C334.385 99.8118 331.971 94.5487 331.971 94.5487Z" fill="#0E609C"/>
<path d="M335.015 115.988C334.613 115.331 334.061 114.769 333.299 114.396C330.326 112.949 327.958 115.354 327.081 117.952C325.882 121.492 325.693 125.277 325.79 128.983C325.944 134.994 326.964 141.175 325.588 147.115C324.32 152.597 320.712 157.261 315.69 159.822C311.008 162.211 305.036 163.16 299.584 162.186C300.123 163.172 300.679 163.856 301.254 164.117C316.944 167.525 331.963 154.882 333.312 151.273C334.662 147.661 333.505 134.147 332.855 125.104C332.566 121.101 333.808 118.414 335.015 115.988Z" fill="#8CBDE2" fill-opacity="0.301961"/>
<path d="M292.801 131.108C292.801 131.108 292.869 131.664 292.993 132.621C297.862 132.953 302.975 132.834 307.458 131.419C311.776 130.056 317.271 127.546 319.438 123.253C315.453 122.839 311.483 124.016 307.507 123.454C304.517 123.032 302.909 121.562 300.751 119.655C299.998 118.99 297.735 116.515 296.662 117.464C295.507 118.486 297.376 121.274 297.852 122.178C298.457 123.331 299.462 124.881 298.55 126.162C295.811 130.006 288.189 118.782 286.628 122.783C286.64 122.828 286.649 122.88 286.665 122.925C288.601 128.596 292.801 131.108 292.801 131.108Z" fill="#8CBDE2" fill-opacity="0.301961"/>
<path d="M284.902 87.4161C289.712 82.3116 289.535 73.4451 289.21 64.5313L307.324 48.3839L326.568 63.162C326.896 72.0779 327.369 80.932 332.54 85.672C333.225 86.3001 333.149 87.4202 332.358 87.9103C330.005 89.3722 323.984 92.2447 308.951 92.7944C293.915 93.3463 287.701 90.9207 285.246 89.6379C284.423 89.2054 284.264 88.0935 284.902 87.4161Z" fill="#F2444D"/>
<path d="M288.949 77.6189C290.853 78.249 292.587 78.8688 293.629 80.8002C294.895 83.1476 296.065 85.4002 297.84 87.4243C300.512 90.4718 304.141 92.3723 308.018 92.8191C308.333 92.8088 308.627 92.8068 308.951 92.7944C310.415 92.7409 311.769 92.6585 313.069 92.5659C313.38 92.4979 313.693 92.4259 314.004 92.3373C316.971 91.4972 319.604 89.4978 321.47 87.0722C323.245 84.766 323.43 82.7584 323.741 80.0281C323.871 78.8791 323.908 78.1996 325.065 77.9566C326.22 77.7116 327.054 77.8084 328.036 77.2853C326.98 73.0621 326.751 68.1224 326.568 63.162L307.324 48.3839L289.21 64.5313C289.375 69.0696 289.498 73.5934 288.949 77.6189Z" fill="#F2444D" fill-opacity="0.301961"/>
<path d="M304.34 84.4181L312.933 84.103L313.32 94.6312C313.406 97.0053 318.225 109.733 306.546 108.991C298.756 108.433 304.814 97.3204 304.725 94.9462L304.34 84.4181Z" fill="#F68E6B"/>
<path d="M310.915 90.7704C311.739 91.0113 312.503 91.3696 313.215 91.802L312.933 84.103L304.34 84.4181L304.575 90.8198C306.574 90.1341 308.85 90.1671 310.915 90.7704Z" fill="#F68E6B" fill-opacity="0.301961"/>
<path d="M321.911 69.0881C321.293 72.0758 322.3 75.6278 324.332 76.1838C326.364 76.7397 328.652 74.0876 329.27 71.0998C329.885 68.1121 328.598 65.9192 326.566 65.3632C324.534 64.8072 322.526 66.1004 321.911 69.0881Z" fill="#F68E6B"/>
<path d="M328.769 67.097C328.263 66.2322 327.499 65.6185 326.566 65.3632C324.534 64.8072 322.526 66.1004 321.911 69.0881C321.35 71.7999 322.131 74.9709 323.801 75.949C323.797 72.2776 325.629 68.4889 328.769 67.097Z" fill="#F68E6B" fill-opacity="0.301961"/>
<path d="M294.284 70.0991C295.118 73.0333 294.372 76.6511 292.387 77.3533C290.4 78.0575 287.925 75.5804 287.091 72.6462C286.257 69.712 287.382 67.4285 289.367 66.7263C291.354 66.0242 293.45 67.1649 294.284 70.0991Z" fill="#F68E6B"/>
<path d="M294.284 70.0991C293.45 67.1649 291.354 66.0242 289.367 66.7263C288.073 67.1855 287.157 68.3201 286.9 69.8623C287.147 69.852 287.423 69.8912 287.74 70.0065C289.101 70.4986 290.242 72.2179 290.835 73.4472C291.45 74.7238 291.704 76.1158 291.625 77.4727C291.885 77.4789 292.138 77.4418 292.387 77.3533C294.372 76.6511 295.118 73.0333 294.284 70.0991Z" fill="#F68E6B" fill-opacity="0.301961"/>
<path d="M325.539 62.8902C325.071 50.1321 316.87 42.4269 307.114 42.7852C297.36 43.1435 289.743 51.4272 290.211 64.1833C290.678 76.9394 299.053 89.3393 308.806 88.981C318.562 88.6248 326.006 75.6463 325.539 62.8902Z" fill="#F68E6B"/>
<path d="M299.182 59.3548C299.265 59.0212 299.608 58.8544 299.921 58.9944C302.232 60.0404 303.675 62.2869 305.815 63.613C308.415 65.2252 311.527 66.0756 314.473 66.8025C317.718 67.6055 321.581 68.0853 325.327 67.867C325.522 66.2218 325.598 64.554 325.539 62.8902C325.071 50.1321 316.87 42.4269 307.114 42.7852C297.36 43.1435 289.743 51.4272 290.211 64.1833C290.24 64.9802 290.301 65.7771 290.39 66.5677C294.21 67.1237 298.35 62.7173 299.182 59.3548Z" fill="#F68E6B" fill-opacity="0.301961"/>
<path d="M313.336 66.5698C313.396 68.1821 314.261 69.4587 315.27 69.4216C316.279 69.3846 317.049 68.0482 316.991 66.4359C316.932 64.8237 316.065 63.547 315.056 63.5841C314.047 63.6212 313.277 64.9575 313.336 66.5698Z" fill="#52210E"/>
<path d="M298.997 67.0949C299.055 68.7071 299.922 69.9838 300.93 69.9488C301.939 69.9117 302.707 68.5733 302.65 66.961C302.59 65.3488 301.725 64.0721 300.716 64.1092C299.707 64.1462 298.937 65.4826 298.997 67.0949Z" fill="#52210E"/>
<path d="M306.548 70.2432C306.599 71.629 307.326 72.2838 308.195 72.2529C309.062 72.2199 309.739 71.5137 309.69 70.1279C309.638 68.7421 308.924 68.4641 308.057 68.4971C307.19 68.528 306.498 68.8574 306.548 70.2432Z" fill="#ED6E46"/>
<path d="M316.767 70.616L318.422 72.1541" stroke="#F2444D" stroke-opacity="0.501961" stroke-width="0.702151" stroke-miterlimit="10" stroke-linecap="round"/>
<path d="M317.794 70.128L320.381 72.531" stroke="#F2444D" stroke-opacity="0.501961" stroke-width="0.702151" stroke-miterlimit="10" stroke-linecap="round"/>
<path d="M319.886 70.5006L321.542 72.0387" stroke="#F2444D" stroke-opacity="0.501961" stroke-width="0.702151" stroke-miterlimit="10" stroke-linecap="round"/>
<path d="M299.524 71.2481L297.986 72.9015" stroke="#F2444D" stroke-opacity="0.501961" stroke-width="0.702151" stroke-miterlimit="10" stroke-linecap="round"/>
<path d="M298.464 70.8363L296.061 73.4225" stroke="#F2444D" stroke-opacity="0.501961" stroke-width="0.702151" stroke-miterlimit="10" stroke-linecap="round"/>
<path d="M296.405 71.3614L294.866 73.0169" stroke="#F2444D" stroke-opacity="0.501961" stroke-width="0.702151" stroke-miterlimit="10" stroke-linecap="round"/>
<path d="M317.591 63.8292C317.591 63.8292 316.818 64.9884 315.649 65.1449" stroke="#52210E" stroke-width="0.376814" stroke-miterlimit="10" stroke-linecap="round"/>
<path d="M318.225 64.6981C318.225 64.6981 317.175 65.6124 316.005 65.4538" stroke="#52210E" stroke-width="0.376814" stroke-miterlimit="10" stroke-linecap="round"/>
<path d="M318.138 65.7544C318.138 65.7544 316.847 66.2774 315.793 65.7482" stroke="#52210E" stroke-width="0.376814" stroke-miterlimit="10" stroke-linecap="round"/>
<path d="M298.206 64.5396C298.206 64.5396 299.061 65.6391 300.241 65.7091" stroke="#52210E" stroke-width="0.376814" stroke-miterlimit="10" stroke-linecap="round"/>
<path d="M297.636 65.4538C297.636 65.4538 298.752 66.2877 299.907 66.0427" stroke="#52210E" stroke-width="0.376814" stroke-miterlimit="10" stroke-linecap="round"/>
<path d="M297.801 66.4998C297.801 66.4998 299.127 66.9261 300.14 66.3207" stroke="#52210E" stroke-width="0.376814" stroke-miterlimit="10" stroke-linecap="round"/>
<path d="M302.549 77.2071C302.549 77.2071 304.668 73.2783 308.302 75.0945C311.792 73.0168 314.193 76.7809 314.193 76.7809C314.193 76.7809 316.234 83.9836 308.638 84.2615C301.042 84.5395 302.549 77.2071 302.549 77.2071Z" fill="#F2444D" fill-opacity="0.501961"/>
<path d="M302.405 77.901C302.473 79.7378 305.277 83.0488 308.588 82.9273C311.899 82.8058 314.455 79.2992 314.387 77.4604C314.376 77.1804 314.312 76.958 314.193 76.7809C313.509 75.7514 311.164 76.1323 308.343 76.2352C305.522 76.3382 303.156 76.1302 302.549 77.2071C302.444 77.3925 302.394 77.6189 302.405 77.901Z" fill="#52210E"/>
<path d="M302.548 77.2071C303.883 77.9442 306.018 78.3725 308.417 78.284C310.816 78.1954 312.916 77.6127 314.193 76.7808C313.509 75.7513 311.164 76.1322 308.343 76.2352C305.522 76.3381 303.156 76.1302 302.548 77.2071Z" fill="white"/>
<path d="M289.033 66.8683C289.033 66.8683 283.78 39.0232 306.945 38.1749C330.11 37.3265 326.916 65.4805 326.916 65.4805C326.916 65.4805 308.806 64.4654 298.107 54.3696C298.107 54.3696 293.623 66.3021 289.033 66.8683Z" fill="#F2444D"/>
<path d="M303.097 59.1879C302.259 58.6855 301.237 58.7123 300.364 58.8523C299.471 58.9944 298.659 59.4021 298.039 59.9436C297.424 60.5078 297.078 61.2244 296.893 61.8895C296.878 61.9389 296.905 61.9801 296.95 61.9842C296.987 61.9883 297.026 61.9616 297.047 61.9286C297.809 60.7261 299.186 60.0775 300.514 60.1578C301.198 60.1928 301.797 60.5161 302.454 60.6602C303.09 60.8311 303.91 59.7048 303.097 59.1879Z" fill="#F2444D"/>
<path d="M390.602 92.0264C390.19 91.4807 389.675 91.0936 389.119 90.931C388.769 90.3462 388.088 89.9611 387.266 90.2473C385.232 90.9598 383.383 92.0429 381.733 93.4287C380.461 94.4953 378.902 95.6525 379.464 97.4933C379.905 98.9429 380.829 100.757 382.118 101.603C383.718 102.653 384.764 101.634 385.728 100.384C387.091 98.6196 388.928 97.4624 390.487 95.9325C391.631 94.8082 391.541 93.2742 390.602 92.0264Z" fill="#F68E6B"/>
<path d="M409.296 90.1073C410.754 89.7532 410.353 87.4449 408.883 87.8032C407.023 88.2583 405.083 88.1265 403.228 88.596C402.499 88.7792 401.725 88.9851 400.961 89.2178C400.393 89.1498 400.222 88.4642 400.591 87.9453C403.416 86.4298 406.36 85.1408 409.412 84.1421C410.841 83.6747 409.844 81.5559 408.425 82.0192C405.518 82.9705 402.707 84.1874 400.002 85.6103C399.991 85.5053 399.367 84.7352 399.93 84.2307C401.847 82.7234 403.778 81.2368 405.866 79.9375C407.132 79.153 406.16 77.0197 404.882 77.8145C402.242 79.4556 399.829 81.3541 397.399 83.2526C396.093 83.8642 394.129 84.2245 392.896 83.4153C391.911 82.7708 391.792 81.7268 391.967 80.6355C392.163 80.0116 392.329 79.3836 392.465 78.7514C392.542 78.5249 392.616 78.3046 392.686 78.0966C392.797 77.761 392.803 77.4542 392.743 77.1721C392.953 74.9936 389.527 74.73 389.241 76.9477C389.2 77.273 389.13 77.6086 389.043 77.9525C388.946 78.2572 388.854 78.5743 388.765 78.8976C386.83 84.7084 380.514 92.605 386.809 97.4809C389.768 99.7707 392.729 97.6066 395.719 96.645C397.759 95.9861 399.219 95.3148 400.498 94.1473C402.479 94.3038 404.499 94.8062 406.22 95.3971C407.643 95.8872 408.454 93.6902 407.025 93.2001C405.559 92.6956 403.941 92.2653 402.298 92.0079C402.308 91.9646 402.055 91.5796 402.079 91.4334C402.094 91.351 402.407 91.2872 402.409 91.2089C403.029 91.0339 403.64 90.8857 404.196 90.7745C405.887 90.4368 407.616 90.5171 409.296 90.1073Z" fill="#F68E6B"/>
<path d="M323.043 94.0999C312.573 100.932 345.876 139.33 356.647 133.468C367.419 127.608 335.951 85.6762 323.043 94.0999Z" fill="#F68E6B"/>
<path d="M353.316 133.744C358.869 137.397 381.499 109.883 388.378 95.3745L384.595 91.4437C384.595 91.4437 340.428 125.268 353.316 133.744Z" fill="#F68E6B"/>
<path d="M278.457 136.698C277.508 138.741 273.015 138.772 266.964 137.584L265.685 124.317C274.553 127.344 280.912 131.419 278.457 136.698Z" fill="#F68E6B"/>
</svg>
