<svg width="169" height="51" viewBox="0 0 169 51" fill="none" xmlns="http://www.w3.org/2000/svg">
<path fill-rule="evenodd" clip-rule="evenodd" d="M35.7427 43.0003C34.6223 44.2744 33.2884 45.4776 31.5839 46.6808C25.829 50.6303 17.8173 52.7178 9.63641 49.2197C-4.52508 43.2392 -0.970601 23.6049 6.87182 13.7314C5.96909 10.2333 5.51773 4.98626 6.64613 0.811159C6.87182 -0.147986 8.05664 -0.486507 7.77454 1.09326C7.15392 4.64774 7.6617 8.76642 8.2259 11.8131C14.3193 3.97069 22.7823 0.472639 31.6967 1.4882C53.7006 3.97069 45.689 31.1088 22.4438 27.7236C16.5761 26.8773 11.3854 24.2256 8.45158 18.1322C6.42045 20.7839 -2.83247 43.6341 11.8368 48.1478C17.8738 49.9532 25.152 49.1069 30.7376 45.7781C34.4841 43.5819 36.5215 40.9254 38.3298 37.6332C41.9766 30.0901 45.9757 21.9573 49.9747 14.5777C51.2724 12.2081 52.1751 10.9104 53.9805 11.0232C54.2361 11.0429 54.5054 11.09 54.7812 11.1382C55.297 11.2283 55.8355 11.3224 56.3502 11.2489C53.8677 13.7878 46.5331 27.6108 41.9066 37.033C43.4299 35.1147 44.9533 33.3657 46.4766 32.068C49.1848 29.6419 54.9961 26.0874 56.9144 26.7645C56.9144 26.7645 50.8774 37.3715 50.144 41.3209C49.6926 43.6341 50.2568 44.2548 50.9903 44.3112C53.5372 44.4773 57.2795 37.0907 58.538 34.5223C60.8161 29.5431 65.3287 25.4139 69.0465 25.5232C73.3344 25.5797 73.9551 30.7703 71.8111 35.7917C70.9648 37.7664 69.2158 40.4182 67.0718 42.4493C67.5232 43.2956 68.3695 43.8598 69.7235 43.8598C72.9493 43.8598 75.6347 38.2767 77.1362 35.1549C77.3155 34.7821 77.4779 34.4444 77.6224 34.1555C77.6919 34.0166 77.8024 33.9255 77.9237 33.8799C78.5847 32.4249 79.4025 31.039 80.2719 29.8676C82.3595 27.0466 85.1241 25.4104 87.8322 25.4104C90.6533 25.4104 92.0073 26.9902 91.7253 29.3034C91.4996 31.1653 89.1863 33.5349 87.9451 32.2937C88.5657 31.5602 89.412 30.4318 89.6941 29.4162C90.2019 27.4415 89.6377 26.6516 88.5657 26.6516C86.5346 26.6516 84.1085 29.247 82.5287 31.5038C81.5132 32.9707 79.4256 36.8637 79.4256 40.1361C79.4256 42.3929 80.3284 44.4804 82.7544 44.4804C86.552 44.4804 89.0326 41.2047 91.006 37.6577C91.2073 36.788 91.5007 35.8932 91.8813 35.0018C94.0817 29.8112 98.7646 25.4104 102.601 25.5232C106.889 25.5797 107.51 30.7703 105.366 35.7917C104.519 37.7664 102.77 40.4182 100.626 42.4493C101.078 43.2956 101.924 43.8598 103.278 43.8598C106.504 43.8598 109.189 38.2767 110.691 35.1549C110.87 34.7821 111.033 34.4444 111.177 34.1555C111.193 34.1237 111.211 34.0944 111.231 34.0676C112.999 27.778 116.513 19.767 119.751 14.352C123.757 7.63801 129.85 8.42789 125.788 17.4551C123.192 23.2664 119.751 29.3598 114.222 34.3812C114.117 34.7359 113.974 35.1446 113.818 35.5902C113.553 36.3496 113.25 37.2161 113.037 38.105C111.344 44.8754 115.858 45.8345 118.848 41.6594C119.99 40.0325 121.026 38.257 121.826 36.7888C122.528 34.547 123.85 32.0484 125.952 29.5291C129.337 25.5232 135.826 23.4357 139.042 26.9337C139.831 27.78 139.38 28.7392 138.421 28.5699C137.8 26.4824 135.713 26.031 133.625 27.1594C131.086 28.5699 128.152 31.8987 126.121 35.2275C125.67 36.0174 124.147 38.782 123.808 40.926C123.244 44.8754 126.347 44.424 128.999 41.2645C130.973 38.8948 132.553 36.1302 134.02 33.3657C135.261 30.996 136.051 29.6419 137.857 29.7548C138.109 29.7741 138.374 29.8268 138.645 29.8807C139.165 29.9838 139.708 30.0916 140.226 29.9804C139.042 31.1653 135.713 37.0894 134.979 40.531C134.528 42.8443 134.81 43.9162 135.544 43.9162C137.67 44.0175 140.886 38.2593 142.38 35.3225C143.283 31.9604 144.66 28.1016 145.903 25.0719H142.969C142.348 25.0719 142.461 23.8306 143.082 23.8306H146.467C147.765 21.0096 149.175 18.245 150.586 15.819C154.479 8.9921 160.572 9.95124 156.397 18.9785C155.607 20.6711 154.817 22.2509 153.971 23.8306H156.679C157.243 23.8306 157.13 25.0719 156.566 25.0719H153.294C151.376 28.3442 149.119 31.3345 145.79 34.3812C145.282 35.8481 144.492 40.1361 144.492 40.1361C143.646 43.9162 146.241 44.424 148.103 43.0699C150.273 41.466 151.93 38.7182 153.306 36.0797C154.069 33.7385 155.409 31.3765 156.972 29.5291C159.85 26.1439 164.138 23.9999 166.62 25.8618C168.764 27.4979 167.128 31.3345 163.517 34.0991C161.768 35.3968 158.101 36.5816 156.577 36.5816C155.731 38.6127 154.772 44.3112 158.496 44.3112C163.461 44.3112 166.507 37.6536 167.805 34.6633C168.256 33.6478 169.385 33.5349 168.82 34.7197C168.686 35.0094 168.551 35.3063 168.413 35.6083C166.406 40.0115 163.905 45.496 158.044 45.496C155.223 45.496 152.684 43.6341 152.628 40.0797C152.623 39.7829 152.633 39.4797 152.658 39.1714C151.526 41.2146 150.645 42.3333 149.288 43.6906C146.241 46.6244 140.656 45.6653 141.502 39.459C141.534 39.2165 141.573 38.9647 141.617 38.7047C139.817 41.8683 137.441 45.1874 135.092 45.3832C133.23 45.496 130.579 44.0291 132.271 38.105C131.368 39.5719 129.845 41.8287 128.209 43.4085C124.157 47.2838 120.964 44.8895 121.211 40.058C119.522 42.8039 117.143 45.3832 113.827 45.3832C109.737 45.3832 109.428 42.1458 109.98 38.9438C108.404 41.7795 106.084 44.819 103.165 44.819C101.473 44.819 100.288 44.1983 99.5544 43.352C97.9747 44.5369 96.2821 45.3268 94.6459 45.2703C91.9076 45.1983 90.6649 43.0785 90.6826 40.2481C88.7304 43.3967 86.3456 45.496 82.1902 45.496C77.3732 45.496 76.0158 42.5306 76.4266 38.941C74.8511 41.7775 72.5308 44.819 69.6107 44.819C67.9181 44.819 66.7333 44.1983 65.9998 43.352C64.42 44.5369 62.7274 45.3268 61.0912 45.2703C58.0629 45.1906 56.8637 42.6063 57.1758 39.3259C55.389 42.4832 53.0654 45.496 50.2568 45.496C48.2821 45.496 45.5739 44.1419 47.2665 38.8948C47.7179 37.4279 48.7899 35.5096 50.3696 32.9707C51.7237 30.7703 50.7082 29.247 46.3638 33.3092C44.4455 35.0583 41.6809 38.2178 38.465 44.4804C38.07 45.2703 37.5622 45.3268 36.3774 45.3268C36.2082 45.338 36.0524 45.3448 35.9071 45.3511C35.3257 45.3764 34.9105 45.3945 34.4591 45.6653C34.8796 44.7933 35.3076 43.904 35.7427 43.0003ZM23.2901 26.3695C43.6578 28.6264 48.6792 6.00182 32.2045 3.63217C23.7979 2.39093 15.1656 7.80727 9.57999 16.3267C12.1189 22.8151 17.1403 25.6925 23.2901 26.3695ZM69.78 36.638C71.9804 32.0116 72.2625 28.0057 70.2313 27.3851C67.8053 26.7081 64.3072 30.319 62.2197 34.7762C60.0193 39.4026 59.5115 43.352 61.5426 43.9727C62.6146 44.2548 64.0251 43.6906 65.3792 42.5622C64.7586 41.6594 64.4765 40.6439 64.4765 39.7976C64.5329 38.4999 65.0407 37.3715 66.4512 37.3715C67.4103 37.3715 68.1438 38.1614 68.1438 39.0641C68.1438 39.2511 68.1051 39.3993 68.0597 39.573C68.0503 39.6089 68.0406 39.646 68.0309 39.6847C68.6516 38.782 69.2722 37.71 69.78 36.638ZM103.335 36.638C105.535 32.0116 105.817 28.0057 103.786 27.3851C101.36 26.7081 97.8618 30.319 95.7743 34.7762C93.5739 39.4026 93.0661 43.352 95.0972 43.9727C96.1692 44.2548 97.5797 43.6906 98.9338 42.5622C98.3132 41.6594 98.0311 40.6439 98.0311 39.7976C98.0875 38.4999 98.5953 37.3715 100.006 37.3715C100.965 37.3715 101.698 38.1614 101.698 39.0641C101.698 39.2511 101.66 39.3993 101.614 39.573C101.605 39.6089 101.595 39.646 101.586 39.6847C102.206 38.782 102.827 37.71 103.335 36.638ZM114.673 32.5758C118.679 28.5135 122.741 21.8559 124.941 16.6088C126.07 14.0135 126.634 9.72556 123.587 14.0699C120.823 17.9629 116.422 28.0621 114.673 32.5758ZM152.73 23.8306C153.802 21.9123 154.761 19.9376 155.551 18.0758C156.623 15.7061 157.413 10.6847 153.915 15.5933C152.779 17.2017 151.723 19.6432 150.58 22.2857C150.36 22.7947 150.136 23.3112 149.909 23.8306H152.73ZM146.298 32.5758C148.442 30.3754 150.36 27.78 151.996 25.0719H149.344C148.416 27.2383 147.557 29.4047 146.848 31.191C146.653 31.6842 146.469 32.1485 146.298 32.5758ZM156.972 35.6225C157.988 35.6225 160.922 34.8326 162.953 33.14C167.579 29.247 167.297 21.9123 160.357 30.319C158.89 32.1244 157.48 34.6069 156.972 35.6225ZM56.6866 17.4707H64.0551L65.7396 21.9662H66.3493L60.7171 6.91928H60.035L54.4027 21.9662H55.0125L56.6866 17.4707ZM63.8484 16.9126H56.8933L60.376 7.59101L63.8484 16.9126ZM75.9293 21.9662H76.4874V14.5254C76.5287 13.9536 76.7767 13.3611 77.2314 12.7479C78.0237 11.6869 79.0985 11.146 80.4558 11.1254C81.5099 11.1116 82.2815 11.401 82.7707 11.9935C83.2667 12.5791 83.5147 13.4851 83.5147 14.7114V21.9662H84.0728V14.6701C84.0659 13.3059 83.7662 12.2828 83.1737 11.6008C82.5881 10.9187 81.6925 10.5777 80.4868 10.5777C79.5636 10.5777 78.7299 10.8188 77.9858 11.3011C77.2418 11.7764 76.7044 12.4172 76.3737 13.2233C76.1877 12.2863 75.795 11.6111 75.1956 11.1977C74.6031 10.7843 73.8383 10.5777 72.9013 10.5777C72.047 10.5777 71.2685 10.8257 70.5658 11.3217C69.863 11.8178 69.3222 12.5205 68.9432 13.4299V10.7843H68.3749V21.9662H68.9432V14.8974C69.0948 14.112 69.4014 13.3955 69.863 12.7479C70.6415 11.6662 71.644 11.1254 72.8703 11.1254C73.9313 11.1254 74.7029 11.401 75.1852 11.9521C75.6744 12.4964 75.9224 13.33 75.9293 14.4531V21.9662ZM87.5968 21.9662H88.1549V10.7843H87.5968V21.9662ZM87.4728 6.88827C87.3626 6.99851 87.3075 7.13285 87.3075 7.29131C87.3075 7.44977 87.3626 7.58412 87.4728 7.69436C87.5831 7.80459 87.7174 7.85971 87.8759 7.85971C88.0343 7.85971 88.1687 7.80459 88.2789 7.69436C88.396 7.58412 88.4546 7.44977 88.4546 7.29131C88.4546 7.13285 88.396 6.99851 88.2789 6.88827C88.1687 6.77115 88.0343 6.71259 87.8759 6.71259C87.7174 6.71259 87.5831 6.77115 87.4728 6.88827ZM92.423 12.0865C91.672 13.0855 91.2966 14.4772 91.2966 16.2616V16.4063C91.2966 18.1975 91.672 19.6065 92.423 20.633C93.174 21.6596 94.1971 22.1728 95.4923 22.1728C96.326 22.1728 97.07 22.0041 97.7245 21.6665C98.3859 21.322 98.9096 20.8328 99.2954 20.199V21.9145C99.2747 23.1891 98.944 24.1743 98.3033 24.8701C97.6625 25.5729 96.7669 25.9242 95.6163 25.9242C94.9205 25.9242 94.3142 25.7761 93.7975 25.4799C93.2808 25.1905 92.8054 24.7702 92.3713 24.2191L91.9786 24.5911C92.4196 25.1974 92.9501 25.6624 93.5701 25.9862C94.1971 26.3101 94.886 26.472 95.637 26.472C96.9391 26.472 97.9691 26.0551 98.727 25.2215C99.4848 24.3947 99.8638 23.2442 99.8638 21.7698V10.7843H99.2954V12.8306C98.9027 12.0934 98.3825 11.5353 97.7349 11.1564C97.0873 10.7706 96.3466 10.5777 95.513 10.5777C94.204 10.5777 93.174 11.0806 92.423 12.0865ZM92.8157 20.2507C92.1819 19.3343 91.8649 18.077 91.8649 16.4786C91.8649 14.7217 92.1819 13.3921 92.8157 12.4895C93.4564 11.587 94.3521 11.1357 95.5027 11.1357C97.4249 11.1357 98.6891 12.1037 99.2954 14.0397V19.1139C99.0198 19.9062 98.5513 20.5228 97.8899 20.9637C97.2285 21.3978 96.4259 21.6148 95.482 21.6148C94.3383 21.6148 93.4496 21.1601 92.8157 20.2507ZM103.202 13.2853C102.795 14.1327 102.592 15.0903 102.592 16.1582V16.6543C102.599 17.7084 102.809 18.6592 103.222 19.5066C103.636 20.3471 104.215 21.0016 104.959 21.4701C105.71 21.9386 106.557 22.1728 107.501 22.1728C108.445 22.1728 109.289 21.9352 110.033 21.4598C110.784 20.9844 111.363 20.323 111.769 19.4756C112.175 18.6281 112.379 17.667 112.379 16.5923V16.0962C112.372 15.0352 112.158 14.081 111.738 13.2336C111.325 12.3862 110.746 11.7317 110.002 11.2701C109.258 10.8085 108.417 10.5777 107.48 10.5777C106.536 10.5777 105.689 10.8153 104.938 11.2907C104.194 11.7661 103.615 12.431 103.202 13.2853ZM103.698 19.1552C103.333 18.3767 103.15 17.5224 103.15 16.5923V16.2616C103.15 14.7872 103.553 13.5643 104.359 12.5929C105.165 11.6214 106.206 11.1357 107.48 11.1357C108.314 11.1357 109.058 11.3562 109.712 11.7971C110.374 12.2312 110.891 12.8374 111.263 13.616C111.635 14.3945 111.821 15.2419 111.821 16.1582V16.4786C111.821 17.9874 111.418 19.2207 110.612 20.1783C109.812 21.136 108.775 21.6148 107.501 21.6148C106.653 21.6148 105.899 21.3978 105.238 20.9637C104.583 20.5297 104.07 19.9268 103.698 19.1552Z" fill="white"/>
</svg>
